<?xml version="1.0" encoding="UTF-8" standalone="no"?>
<svg
   xmlns:dc="http://purl.org/dc/elements/1.1/"
   xmlns:cc="http://creativecommons.org/ns#"
   xmlns:rdf="http://www.w3.org/1999/02/22-rdf-syntax-ns#"
   xmlns:svg="http://www.w3.org/2000/svg"
   xmlns="http://www.w3.org/2000/svg"
   xmlns:sodipodi="http://sodipodi.sourceforge.net/DTD/sodipodi-0.dtd"
   xmlns:inkscape="http://www.inkscape.org/namespaces/inkscape"
   width="134.89151mm"
   height="136.00909mm"
   viewBox="0 0 134.89151 136.00909"
   version="1.1"
   id="svg8"
   inkscape:version="1.0.2 (e86c870879, 2021-01-15, custom)"
   sodipodi:docname="loading_P3.svg">
  <defs
     id="defs2">
    <marker
       style="overflow:visible"
       id="marker1126"
       refX="0"
       refY="0"
       orient="auto"
       inkscape:stockid="Arrow1Lstart"
       inkscape:isstock="true">
      <path
         transform="matrix(0.8,0,0,0.8,10,0)"
         style="fill:none;fill-opacity:1;fill-rule:evenodd;stroke:none;stroke-width:1pt;stroke-opacity:1"
         d="M 0,0 5,-5 -12.5,0 5,5 Z"
         id="path1124" />
    </marker>
    <clipPath
       clipPathUnits="userSpaceOnUse"
       id="clipPath1010">
      <rect
         style="opacity:0.994;fill:none;fill-opacity:1;stroke-width:1.01932;stroke-linecap:round;stroke-linejoin:round"
         id="rect1012"
         width="137.54494"
         height="139.08606"
         x="44.171513"
         y="162.92294" />
    </clipPath>
    <clipPath
       clipPathUnits="userSpaceOnUse"
       id="clipPath1014">
      <rect
         style="opacity:0.994;fill:none;fill-opacity:1;stroke-width:1.01932;stroke-linecap:round;stroke-linejoin:round"
         id="rect1016"
         width="137.54494"
         height="139.08606"
         x="44.171513"
         y="162.92294" />
    </clipPath>
    <clipPath
       clipPathUnits="userSpaceOnUse"
       id="clipPath953">
      <rect
         style="opacity:0.994;fill:none;stroke-width:1.01932;stroke-linecap:round;stroke-linejoin:round"
         id="rect955"
         width="139.85661"
         height="140.2419"
         x="43.786236"
         y="162.15239" />
    </clipPath>
    <clipPath
       clipPathUnits="userSpaceOnUse"
       id="clipPath957">
      <rect
         style="opacity:0.994;fill:none;stroke-width:1.01932;stroke-linecap:round;stroke-linejoin:round"
         id="rect959"
         width="139.85661"
         height="140.2419"
         x="43.786236"
         y="162.15239" />
    </clipPath>
  </defs>
  <sodipodi:namedview
     id="base"
     pagecolor="#ffffff"
     bordercolor="#666666"
     borderopacity="1.0"
     inkscape:pageopacity="0.0"
     inkscape:pageshadow="2"
     inkscape:zoom="0.7"
     inkscape:cx="210.14442"
     inkscape:cy="284.86572"
     inkscape:document-units="mm"
     inkscape:current-layer="g846"
     inkscape:document-rotation="0"
     showgrid="false"
     inkscape:window-width="1920"
     inkscape:window-height="1017"
     inkscape:window-x="-8"
     inkscape:window-y="-8"
     inkscape:window-maximized="1" />
  <metadata
     id="metadata5">
    <rdf:RDF>
      <cc:Work
         rdf:about="">
        <dc:format>image/svg+xml</dc:format>
        <dc:type
           rdf:resource="http://purl.org/dc/dcmitype/StillImage" />
        <dc:title />
      </cc:Work>
    </rdf:RDF>
  </metadata>
  <g
     inkscape:label="Calque 1"
     inkscape:groupmode="layer"
     id="layer1"
     style="display:inline"
     transform="translate(-35.459094,-66.489946)">
    <g
       id="g846"
       transform="matrix(0.98104304,0,0,0.98104304,-8.18237,-93.688593)"
       style="display:inline">
      <g
         aria-label="  loading       ohmyfood       loading       ohmyfood       loading       ohmyfood    "
         id="text835"
         style="font-style:normal;font-weight:normal;font-size:10.5833px;line-height:1.25;font-family:sans-serif;display:inline;fill:#000000;fill-opacity:1;stroke:none;stroke-width:0.264583"
         clip-path="url(#clipPath957)">
        <path
           d="m 181.95983,241.01188 q -0.0608,0.61081 -0.32085,0.87207 -0.26106,0.2718 -0.66124,0.23194 -0.23169,-0.0231 -0.4455,-0.11883 l -5.20622,-2.18837 q -0.12323,-0.0442 -0.21801,-0.0536 -0.1369,-0.0136 -0.2264,0.0306 -0.079,0.0453 -0.16212,0.13275 -0.0811,0.0664 -0.13686,0.0927 -0.0453,0.0274 -0.11689,-0.001 -0.13166,-0.0663 -0.17912,-0.23056 -0.0474,-0.16426 -0.0149,-0.49073 l 0.23916,-2.40111 q 0.0273,-0.27381 0.12411,-0.39179 0.10737,-0.11693 0.25061,-0.0601 0.12218,0.0547 0.19913,0.24318 0.0685,0.16636 0.17387,0.28321 0.10535,0.11685 0.35076,0.21574 l 5.09562,2.12418 q 0.0916,0.041 0.15482,0.0473 0.11584,0.0115 0.19585,-0.0443 0.079,-0.0453 0.16212,-0.13275 0.0947,-0.0969 0.16317,-0.14328 0.0674,-0.0358 0.16955,0.006 0.23593,0.0873 0.35517,0.70543 0.11923,0.61811 0.0542,1.27104 z"
           style="font-style:normal;font-variant:normal;font-weight:normal;font-stretch:normal;font-family:Shrikhand;-inkscape-font-specification:Shrikhand;fill:#000000;fill-opacity:1"
           id="path884" />
        <path
           d="m 178.93232,245.81198 q -0.26818,1.41413 -0.96626,1.97115 -0.70006,0.56742 -1.62548,0.39192 -0.31194,-0.0591 -0.68089,-0.2153 -0.81517,-0.35925 -1.35731,-1.0222 -0.53174,-0.66098 -0.73541,-1.51827 -0.19525,-0.84491 -0.0217,-1.75994 0.27409,-1.44532 0.97809,-2.03353 0.71243,-0.57584 1.66905,-0.39443 0.32233,0.0611 0.70168,0.21924 0.77358,0.35136 1.29295,1.02077 0.5278,0.68177 0.7191,1.54748 0.19973,0.87809 0.0262,1.79311 z m -0.91951,-0.20669 q 0.0414,-0.21835 -0.30639,-0.54283 -0.33937,-0.31212 -1.35766,-0.84992 -1.0183,-0.53781 -1.45501,-0.62063 -0.22876,-0.0434 -0.32574,0.0136 -0.0866,0.059 -0.11025,0.18376 -0.0622,0.21441 0.28953,0.5181 0.34977,0.31408 1.42651,0.88452 0.94748,0.5136 1.40499,0.60037 0.21836,0.0414 0.31534,-0.0156 0.095,-0.0466 0.11868,-0.17139 z"
           style="font-style:normal;font-variant:normal;font-weight:normal;font-stretch:normal;font-family:Shrikhand;-inkscape-font-specification:Shrikhand;fill:#000000;fill-opacity:1"
           id="path886" />
        <path
           d="m 177.1312,252.82778 q -0.35782,1.16329 -1.00749,1.72747 -0.63955,0.56729 -1.5196,0.29658 -0.33381,-0.10268 -0.72133,-0.35475 l -1.26837,-0.84412 q -0.0374,-0.0226 -0.0981,-0.0412 -0.16185,-0.0498 -0.2023,0.0817 -0.0373,0.12139 0.0389,0.23343 0.0833,0.12527 0.0739,0.15561 -0.0156,0.0506 -0.0957,0.0591 -0.0833,0.0187 -0.1743,-0.009 -0.27623,-0.0739 -0.49101,-0.38356 -0.21789,-0.29955 -0.28796,-0.71971 -0.0701,-0.42017 0.0637,-0.85514 0.1618,-0.52601 0.46912,-0.84117 0.30733,-0.31515 0.72516,-0.34165 -0.27081,-0.41548 -0.34555,-0.89245 -0.0646,-0.47385 0.0816,-0.94928 0.16491,-0.53613 0.47924,-0.83806 0.32444,-0.29882 0.70414,-0.38133 0.38671,-0.0693 0.75087,0.0427 0.16185,0.0498 0.30425,0.12681 0.64819,0.37654 0.83732,1.02157 0.18603,0.65514 -0.0442,1.40369 -0.25825,0.8396 -0.77018,1.56794 l 0.58984,0.45825 q 0.3844,0.26219 0.61706,0.33375 0.24589,0.0646 0.41395,-0.0498 0.16806,-0.1144 0.26451,-0.42798 -0.18052,0.0109 -0.35248,-0.042 -0.37428,-0.11512 -0.56027,-0.48237 -0.186,-0.36725 -0.0242,-0.89326 0.15246,-0.49566 0.45201,-0.71355 0.30656,-0.20467 0.63025,-0.1051 0.50578,0.15558 0.66535,0.82473 0.15957,0.66915 -0.19826,1.83244 z m -2.89077,-1.50926 q 0.0871,-0.28324 -0.0794,-0.53377 -0.15953,-0.23731 -0.41242,-0.3151 -0.16185,-0.0498 -0.28478,-0.0101 -0.12605,0.0498 -0.16961,0.19143 -0.0404,0.1315 0.014,0.31435 0.0615,0.19607 0.25213,0.33223 l 0.53148,0.396 q 0.0832,-0.16263 0.14858,-0.37505 z"
           style="font-style:normal;font-variant:normal;font-weight:normal;font-stretch:normal;font-family:Shrikhand;-inkscape-font-specification:Shrikhand;fill:#000000;fill-opacity:1"
           id="path888" />
        <path
           d="m 169.99842,259.92604 q -0.0692,-0.0531 -0.0984,-0.0658 -0.068,-0.0295 -0.12365,-0.007 -0.0557,0.022 -0.081,0.0802 -0.0505,0.1165 0.0128,0.2363 0.0689,0.13372 0.0562,0.16284 -0.0211,0.0486 -0.10166,0.0482 -0.0806,-3.6e-4 -0.16798,-0.0383 -0.26635,-0.10404 -0.44551,-0.43558 -0.18338,-0.32184 -0.20649,-0.74718 -0.0231,-0.42535 0.15383,-0.83311 0.21063,-0.48544 0.55097,-0.76462 0.34033,-0.27919 0.70028,-0.28452 -0.22606,-0.40958 -0.24367,-0.821 -0.0176,-0.41142 0.14669,-0.79006 0.19378,-0.4466 0.58559,-0.73806 0.38759,-0.28175 0.89646,-0.33783 0.51437,-0.0422 1.03864,0.18532 0.8835,0.38335 1.51697,1.05046 0.63896,0.68103 0.85351,1.4894 0.22425,0.81257 -0.10855,1.57956 -0.18114,0.41748 -0.40461,0.66662 -0.22768,0.25884 -0.52717,0.41731 l 0.94415,0.80191 q 0.0747,0.067 0.133,0.0923 0.10679,0.0463 0.20003,0.0176 0.089,-0.019 0.1949,-0.0769 0.1198,-0.0634 0.19911,-0.0867 0.0751,-0.0136 0.15955,0.0577 0.19803,0.15515 0.12296,0.78016 -0.0751,0.62502 -0.33626,1.22696 -0.24433,0.56311 -0.57167,0.73256 -0.33154,0.17917 -0.70048,0.0191 -0.21359,-0.0927 -0.38798,-0.24911 z m 3.43167,-0.43761 q 0.20333,-0.0964 0.28337,-0.28083 0.12216,-0.28155 -0.17736,-0.73454 -0.29952,-0.45299 -0.82014,-0.87501 -0.52062,-0.42202 -1.00056,-0.61873 -0.53398,-0.2317 -0.68564,0.11782 -0.0548,0.12621 0.004,0.25572 0.0689,0.13372 0.2682,0.31249 z"
           style="font-style:normal;font-variant:normal;font-weight:normal;font-stretch:normal;font-family:Shrikhand;-inkscape-font-specification:Shrikhand;fill:#000000;fill-opacity:1"
           id="path890" />
        <path
           d="m 171.72396,265.34353 q -0.29306,0.53935 -0.63407,0.67927 -0.34101,0.13992 -0.69438,-0.0521 -0.21388,-0.11622 -0.37379,-0.28742 l -2.31562,-2.36631 q -0.0964,-0.0885 -0.18012,-0.134 -0.12089,-0.0657 -0.22055,-0.0596 -0.0904,0.0111 -0.20093,0.0594 -0.10046,0.0297 -0.16212,0.0324 -0.0524,0.008 -0.10734,-0.0463 -0.0956,-0.11218 -0.0756,-0.28199 0.02,-0.1698 0.17663,-0.45808 l 1.15203,-2.12022 q 0.13137,-0.24178 0.2664,-0.31295 0.14433,-0.0661 0.2543,0.0418 0.0914,0.0978 0.0892,0.30139 -0.001,0.17991 0.0504,0.32848 0.0518,0.14858 0.23957,0.33494 l 2.24789,2.26928 q 0.0685,0.0734 0.12433,0.10369 0.10229,0.0556 0.18335,0.0394 0.0904,-0.0111 0.20598,-0.0688 0.12492,-0.0526 0.20093,-0.0595 0.076,-0.007 0.15384,0.0716 0.18357,0.17201 0.0536,0.78796 -0.12062,0.62101 -0.43389,1.19756 z m 1.7166,1.73971 q -0.19706,0.36267 -0.57021,0.47308 -0.36386,0.11546 -0.70793,-0.0715 -0.24178,-0.13138 -0.40352,-0.38788 -0.1668,-0.24721 -0.18926,-0.56054 -0.0182,-0.29897 0.13336,-0.57795 0.192,-0.35337 0.55586,-0.46883 0.36809,-0.10111 0.72652,0.0816 0.23248,0.12632 0.38997,0.36847 0.1668,0.24721 0.19432,0.55124 0.0275,0.30402 -0.12911,0.5923 z"
           style="font-style:normal;font-variant:normal;font-weight:normal;font-stretch:normal;font-family:Shrikhand;-inkscape-font-specification:Shrikhand;fill:#000000;fill-opacity:1"
           id="path892" />
        <path
           d="m 163.91858,269.93036 q -0.0234,-0.0412 -0.0937,-0.0883 -0.0615,-0.0413 -0.11437,-0.0385 -0.0587,0.0116 -0.0941,0.0643 -0.0708,0.10546 -0.03,0.23474 0.0436,0.14395 0.0259,0.17032 -0.0295,0.0439 -0.10869,0.029 -0.0704,-0.009 -0.14952,-0.0621 -0.26076,-0.16221 -0.38891,-0.50308 -0.11937,-0.33497 -0.0476,-0.78386 0.0747,-0.4342 0.39306,-0.90878 0.38917,-0.58005 0.88278,-0.74591 0.50241,-0.15996 0.95652,0.13196 0.32518,0.21817 0.62331,0.6476 l 0.94125,1.33245 q 0.0848,0.1206 0.15508,0.16777 0.11425,0.0766 0.22884,0.0388 0.11748,-0.0231 0.18824,-0.1286 0.12972,-0.19334 0.0631,-0.49294 -0.0579,-0.2937 -0.26844,-0.54969 l -1.42728,-1.74776 q -0.0731,-0.10001 -0.16098,-0.15898 -0.10546,-0.0708 -0.20525,-0.074 -0.091,0.003 -0.21438,0.0346 -0.094,0.0261 -0.15563,0.023 -0.0616,-0.003 -0.11136,-0.062 -0.0907,-0.11181 -0.055,-0.27902 0.0357,-0.1672 0.2244,-0.44844 l 1.34438,-2.00378 q 0.1533,-0.22851 0.28847,-0.27801 0.14986,-0.0524 0.25521,0.0565 0.0819,0.10591 0.0607,0.30839 -0.0181,0.17899 0.0196,0.33174 0.0377,0.15275 0.20736,0.35578 l 2.01511,2.48624 q 0.0322,0.0471 0.11125,0.10013 0.0967,0.0649 0.17889,0.0563 0.0763,2.2e-4 0.21438,-0.0346 0.12927,-0.0407 0.20559,-0.0405 0.0763,2.3e-4 0.14651,0.0856 0.16676,0.18835 -0.0199,0.78953 -0.17791,0.60709 -0.54348,1.15198 -0.29482,0.43942 -0.7119,0.52919 -0.40829,0.0957 -0.82123,-0.21962 0.27677,0.70821 0.19888,1.24221 -0.0691,0.53989 -0.38751,1.01447 -0.35968,0.5361 -0.90302,0.64311 -0.54924,0.1158 -1.06776,-0.23209 -0.27245,-0.18279 -0.47714,-0.44757 z"
           style="font-style:normal;font-variant:normal;font-weight:normal;font-stretch:normal;font-family:Shrikhand;-inkscape-font-specification:Shrikhand;fill:#000000;fill-opacity:1"
           id="path894" />
        <path
           d="m 163.51217,279.59356 q -0.21996,0.25751 -0.53883,0.4027 -0.3177,0.16011 -0.64144,0.14804 -0.32256,0.003 -0.53983,-0.18273 -0.4748,-0.40555 0.0751,-1.04933 0.15809,-0.18509 0.27159,-0.26908 0.11467,-0.0691 0.2959,-0.15089 -0.0357,-0.0723 -0.14032,-0.16162 -0.12876,-0.10998 -0.34017,-0.22096 -0.21828,-0.10294 -0.42617,-0.16916 -0.39381,-0.0441 -0.73985,-0.33965 -0.1529,-0.1306 -0.3358,-0.35643 -0.33598,-0.45399 -0.4002,-1.0795 -0.0711,-0.61746 0.16765,-1.30433 0.2399,-0.67195 0.7623,-1.28354 0.39867,-0.46675 0.8136,-0.82217 -0.002,-0.21007 -0.15441,-0.34067 -0.10461,-0.0894 -0.25952,-0.0546 -0.14686,0.0416 -0.33932,0.2669 l -1.03105,1.2071 q -0.52927,0.61964 -1.04212,0.78009 -0.50479,0.16732 -0.89911,-0.16949 -0.14485,-0.12373 -0.25651,-0.30261 -0.23136,-0.36464 -0.20136,-0.9375 0.0151,-0.57169 0.37537,-1.33568 0.36027,-0.76399 1.11637,-1.6492 0.67362,-0.78863 1.27783,-1.219 0.60422,-0.43036 1.07247,-0.48972 0.46707,-0.0743 0.75677,0.17318 0.0644,0.055 0.16565,0.19716 0.1715,0.27176 0.0964,0.653 -0.0602,0.38007 -0.5068,1.00071 0.35005,-0.035 0.60757,0.18492 0.0885,0.0756 0.16446,0.18223 0.30849,0.48619 -0.0265,1.28572 0.84547,-0.32173 1.4812,0.22129 0.17705,0.15122 0.32894,0.36447 0.33598,0.454 0.39214,1.07263 0.0642,0.62551 -0.17451,1.31238 -0.23873,0.68687 -0.76113,1.29846 -0.81796,0.95763 -1.53484,1.29177 0.28819,0.0374 0.55929,0.14367 0.27226,0.12121 0.4493,0.27243 0.3058,0.2612 0.35811,0.63992 0.0454,0.38678 -0.29824,0.78914 z m -1.36522,-4.18641 q 0.30044,0.47931 0.51771,0.6649 0.27361,0.23371 0.47295,3.3e-4 0.17184,-0.20118 0.10126,-0.52592 -0.0694,-0.30982 -0.4458,-0.89576 -0.30848,-0.48618 -0.52575,-0.67177 -0.26557,-0.22683 -0.45803,-0.002 -0.17184,0.20118 -0.10126,0.52592 0.0706,0.32475 0.43892,0.90381 z m -1.45675,-4.01406 q 0.19246,-0.22533 0.3747,-0.3898 -0.0382,-0.19967 -0.23941,-0.37151 -0.20806,-0.16379 -0.42718,-0.0865 -0.22599,0.0853 -0.50781,0.41528 -0.34368,0.40237 -0.43605,0.75494 -0.0993,0.36062 0.12607,0.55308 0.0966,0.0825 0.21476,0.0582 0.1182,-0.0243 0.23505,-0.16111 z"
           style="font-style:normal;font-variant:normal;font-weight:normal;font-stretch:normal;font-family:Shrikhand;-inkscape-font-specification:Shrikhand;fill:#000000;fill-opacity:1"
           id="path896" />
        <path
           d="m 145.50834,291.38205 q -1.25296,0.70835 -2.12905,0.53498 -0.8853,-0.16817 -1.34886,-0.98812 -0.15625,-0.27639 -0.27526,-0.65894 -0.25204,-0.85442 -0.0959,-1.69646 0.16136,-0.83283 0.68446,-1.54191 0.51909,-0.69466 1.32983,-1.153 1.2806,-0.72397 2.18433,-0.56623 0.89973,0.17217 1.3789,1.01976 0.16146,0.28561 0.28568,0.67736 0.23121,0.81758 0.0554,1.6464 -0.17978,0.84324 -0.7173,1.54832 -0.54153,0.7195 -1.35227,1.17784 z m -0.43591,-0.83558 q 0.19348,-0.10937 0.21667,-0.58447 0.0192,-0.46067 -0.22768,-1.58549 -0.24686,-1.12482 -0.46562,-1.51176 -0.11458,-0.20268 -0.22074,-0.23993 -0.10095,-0.028 -0.21151,0.0345 -0.20388,0.091 -0.20865,0.55563 -0.014,0.46989 0.24571,1.6604 0.21962,1.05511 0.44879,1.46048 0.10937,0.19348 0.21553,0.23072 0.097,0.0424 0.2075,-0.0201 z"
           style="font-style:normal;font-variant:normal;font-weight:normal;font-stretch:normal;font-family:Shrikhand;-inkscape-font-specification:Shrikhand;fill:#000000;fill-opacity:1"
           id="path898" />
        <path
           d="m 135.04809,291.69114 q 0.003,-0.0472 -0.0297,-0.12527 -0.0287,-0.0683 -0.0744,-0.095 -0.0554,-0.0226 -0.11397,0.002 -0.11707,0.0492 -0.15408,0.17962 -0.0427,0.14423 -0.0719,0.15654 -0.0488,0.0205 -0.10676,-0.0355 -0.0539,-0.0462 -0.0908,-0.13403 -0.12874,-0.27881 -0.0485,-0.63402 0.0843,-0.34546 0.39095,-0.68108 0.30096,-0.32176 0.82776,-0.54332 0.64387,-0.2708 1.14743,-0.13814 0.50766,0.1424 0.72667,0.63584 0.15181,0.36095 0.16495,0.88357 l 0.0543,1.63047 q 0.005,0.14733 0.0374,0.22538 0.0533,0.12682 0.16986,0.15818 0.11087,0.0452 0.22794,-0.004 0.18535,-0.078 0.30661,-0.33562 0.11561,-0.2438 0.0727,-0.6735 l 0.008,0.0195 -0.2183,-2.23888 q -0.02,-0.12937 -0.0569,-0.21717 -0.0533,-0.12683 -0.13494,-0.18436 -0.0775,-0.0478 -0.19402,-0.0791 -0.097,-0.0396 -0.14679,-0.076 -0.0457,-0.0267 -0.0549,-0.10321 -0.005,-0.14734 0.11715,-0.26742 0.12172,-0.12007 0.42414,-0.24727 l 2.22428,-0.93547 q 0.25365,-0.10668 0.40354,-0.0779 0.15399,0.0386 0.17241,0.19155 0.0102,0.13348 -0.1187,0.29103 -0.11351,0.13959 -0.16594,0.28793 -0.0524,0.14834 -0.0222,0.4112 l 0.56453,5.4917 q 0.008,0.10011 0.0323,0.15864 0.0451,0.10731 0.13239,0.15099 0.0775,0.0478 0.19402,0.0791 0.13038,0.037 0.20377,0.075 0.0636,0.0421 0.0754,0.15198 0.0358,0.249 -0.45049,0.64871 -0.48632,0.39972 -1.09116,0.6541 -0.56583,0.23798 -0.9195,0.13413 -0.36342,-0.0997 -0.51933,-0.47045 -0.0903,-0.21462 -0.10814,-0.44821 l -0.19532,-1.93855 q -0.17122,0.65755 -0.50865,1.02909 -0.34719,0.37565 -0.84472,0.5849 -0.59509,0.25028 -1.10786,0.0411 -0.52253,-0.20504 -0.7646,-0.78062 -0.12719,-0.30243 -0.15273,-0.63613 z"
           style="font-style:normal;font-variant:normal;font-weight:normal;font-stretch:normal;font-family:Shrikhand;-inkscape-font-specification:Shrikhand;fill:#000000;fill-opacity:1"
           id="path900" />
        <path
           d="m 124.1562,294.74497 q 0.0102,-0.0462 -0.0105,-0.12833 -0.0181,-0.0718 -0.0592,-0.10515 -0.0514,-0.0307 -0.11296,-0.0152 -0.12317,0.031 -0.17946,0.15427 -0.064,0.13614 -0.0948,0.14389 -0.0513,0.0129 -0.10018,-0.0512 -0.0463,-0.0538 -0.0695,-0.14621 -0.0851,-0.29506 0.0478,-0.63408 0.13556,-0.32875 0.48937,-0.61419 0.34612,-0.27259 0.90035,-0.41201 0.67739,-0.17041 1.15513,0.0368 0.48031,0.21747 0.62225,0.73833 0.0955,0.37975 0.0296,0.89835 l -0.1927,1.61995 q -0.0178,0.14634 0.003,0.22844 0.0336,0.13343 0.14401,0.18204 0.10277,0.0614 0.22593,0.0305 0.17448,-0.0439 0.32049,-0.24432 0.14602,-0.20043 0.20709,-0.56501 l 0.10234,-1.97917 q 0.0102,-0.0462 -0.0105,-0.12833 -0.0181,-0.0718 -0.0592,-0.10515 -0.0514,-0.0307 -0.11296,-0.0152 -0.12317,0.031 -0.17946,0.15428 -0.064,0.13613 -0.0948,0.14388 -0.0513,0.0129 -0.10018,-0.0512 -0.0463,-0.0538 -0.0695,-0.14621 -0.0851,-0.29506 0.0478,-0.63408 0.13556,-0.32875 0.48937,-0.61419 0.34612,-0.27259 0.90035,-0.41201 0.67739,-0.1704 1.15513,0.0368 0.48031,0.21748 0.62225,0.73833 0.0955,0.37975 0.0296,0.89835 l -0.1927,1.61995 q -0.0178,0.14634 0.003,0.22845 0.0336,0.13342 0.14401,0.18203 0.10277,0.0614 0.22593,0.0305 0.17448,-0.0439 0.32049,-0.24432 0.1486,-0.19016 0.18914,-0.54958 l 0.12487,-2.3668 q 0.0127,-0.12322 -0.0132,-0.22586 -0.031,-0.12316 -0.10296,-0.19236 -0.0694,-0.0589 -0.18241,-0.11781 -0.0873,-0.0435 -0.13104,-0.0871 -0.0437,-0.0436 -0.0413,-0.12058 0.007,-0.14375 0.14595,-0.24406 0.13847,-0.10031 0.4669,-0.18293 l 2.34009,-0.58867 q 0.26685,-0.0671 0.4004,-0.0134 0.1464,0.0614 0.15176,0.21282 -0.0101,0.13349 -0.16132,0.26976 -0.1333,0.12083 -0.20753,0.25955 -0.0742,0.13872 -0.0841,0.40312 l -0.16729,3.19595 q -0.008,0.0565 0.0156,0.14885 0.0284,0.1129 0.0952,0.16157 0.0565,0.0512 0.18242,0.11781 0.12329,0.0563 0.17984,0.10754 0.0565,0.0512 0.0516,0.16163 -0.002,0.25156 -0.54333,0.5732 -0.53855,0.33192 -1.17488,0.49199 -0.50292,0.12651 -0.86001,-0.0783 -0.36735,-0.20224 -0.47844,-0.68721 -0.27363,0.69088 -0.67869,1.03286 -0.41532,0.34457 -0.95929,0.48141 -0.59528,0.14975 -1.05256,-0.10627 -0.46495,-0.24316 -0.64542,-0.78707 -0.26577,0.80894 -0.70155,1.20231 -0.4332,0.40363 -1.02849,0.55338 -0.62608,0.15749 -1.10136,-0.12673 -0.48554,-0.28164 -0.63787,-0.88719 -0.08,-0.31817 -0.0549,-0.65189 z"
           style="font-style:normal;font-variant:normal;font-weight:normal;font-stretch:normal;font-family:Shrikhand;-inkscape-font-specification:Shrikhand;fill:#000000;fill-opacity:1"
           id="path902" />
        <path
           d="m 117.86163,299.54495 q -0.46318,0.048 -0.77613,-0.30267 -0.32238,-0.33901 -0.38887,-0.98116 -0.0578,-0.55793 0.0757,-1.22079 0.25542,-1.33515 0.99982,-2.57198 0.73387,-1.23574 1.77779,-2.04607 1.0334,-0.80924 2.13874,-0.92369 0.5474,-0.0567 0.96705,0.0914 0.40912,0.14916 0.64183,0.44426 0.24324,0.294 0.28031,0.65192 0.0163,0.15791 -0.0167,0.35285 -0.0642,0.30456 -0.26894,0.48536 -0.20471,0.18079 -0.51,0.21241 -0.48424,0.0501 -0.82331,-0.24459 -0.3507,-0.30416 -0.49486,-0.87443 -0.67046,0.10135 -1.18224,0.70761 0.54669,0.0392 0.83711,0.27508 0.28099,0.24754 0.4346,0.80619 l 0.68814,2.53552 q 0.0523,0.19674 0.12309,0.26389 0.0614,0.0788 0.15609,0.069 0.0737,-0.008 0.17133,-0.0922 0.0871,-0.0835 0.12922,-0.0879 0.0842,-0.009 0.10275,0.17024 0.0153,0.14738 -0.0199,0.32126 -0.12736,0.61966 -0.60067,1.08363 -0.47222,0.47449 -1.15648,0.54534 -0.67373,0.0698 -1.03096,-0.29756 -0.36776,-0.36623 -0.54861,-1.18806 l -0.55562,-2.28324 q -0.0588,-0.2599 -0.21674,-0.24355 -0.18949,0.0196 -0.40725,0.38264 -0.21668,0.37356 -0.3934,1.03025 0.34524,0.25153 0.55183,0.60253 0.20658,0.35101 0.25018,0.77209 0.0338,0.32633 -0.0232,0.59823 -0.0827,0.43416 -0.3241,0.67195 -0.25081,0.24941 -0.58768,0.28429 z"
           style="font-style:normal;font-variant:normal;font-weight:normal;font-stretch:normal;font-family:Shrikhand;-inkscape-font-specification:Shrikhand;fill:#000000;fill-opacity:1"
           id="path904" />
        <path
           d="m 112.12949,301.91016 q -1.13229,0.0168 -1.69832,-0.32413 -0.57645,-0.33017 -0.58382,-0.82753 -0.006,-0.40212 0.32938,-0.62936 0.32492,-0.2165 0.8646,-0.2245 0.49736,-0.007 0.77611,0.23195 0.27874,0.23931 0.28407,0.59911 0.003,0.22222 -0.13067,0.46765 0.31746,-0.005 0.52675,-0.16657 0.20945,-0.15129 0.32037,-0.52339 0.06,-0.23374 0.0571,-0.4348 -0.004,-0.25398 -0.0906,-0.40087 -0.0973,-0.13616 -0.26659,-0.13365 l -0.62435,0.009 q -0.55027,0.008 -0.55529,-0.33048 -6.2e-4,-0.0423 0.0193,-0.1273 0.06,-0.23375 0.25938,-0.35313 0.18875,-0.11922 0.58029,-0.12502 l 0.31747,-0.005 0.99684,-3.44413 q 0.0299,-0.12745 0.0285,-0.22269 -0.002,-0.13757 -0.0562,-0.22144 -0.054,-0.0733 -0.15034,-0.14596 -0.0752,-0.073 -0.1077,-0.12542 -0.0324,-0.0419 -0.0123,-0.11624 0.0509,-0.13836 0.20866,-0.2042 0.1578,-0.0658 0.48584,-0.0707 l 2.41273,-0.0357 q 0.27513,-0.004 0.40337,0.0787 0.1284,0.0934 0.0883,0.24213 -0.0404,0.12762 -0.21894,0.22552 -0.15747,0.087 -0.26157,0.20498 -0.1041,0.11797 -0.17441,0.37304 l -0.78528,2.72125 q -0.0506,0.15952 -0.0481,0.32883 0.003,0.21165 0.1001,0.32664 0.0865,0.12573 0.26863,0.27122 0.11781,0.0935 0.18224,0.15606 0.054,0.0733 0.0554,0.16853 0.0136,0.20091 -0.13333,0.28776 -0.15748,0.087 -0.59135,0.0934 l -0.26455,0.004 q 0.078,0.26346 0.0819,0.52801 0.004,0.26456 -0.0871,0.55168 -0.19306,0.54267 -0.84367,0.92277 -0.66119,0.38025 -1.96279,0.39953 z"
           style="font-style:normal;font-variant:normal;font-weight:normal;font-stretch:normal;font-family:Shrikhand;-inkscape-font-specification:Shrikhand;fill:#000000;fill-opacity:1"
           id="path906" />
        <path
           d="m 107.41254,299.41981 q -1.43514,-0.1097 -2.06614,-0.74171 -0.64155,-0.63282 -0.56976,-1.57199 0.0242,-0.31658 0.13846,-0.70057 0.26665,-0.84998 0.86539,-1.46229 0.59793,-0.60176 1.42735,-0.89924 0.81805,-0.28774 1.74668,-0.21676 1.46679,0.11212 2.12945,0.74655 0.6513,0.64418 0.57709,1.61501 -0.025,0.32713 -0.14008,0.72167 -0.26341,0.80777 -0.87109,1.39817 -0.61904,0.60015 -1.45821,0.88627 -0.85052,0.29587 -1.77914,0.22489 z m 0.10345,-0.93675 q 0.2216,0.0169 0.50551,-0.3647 0.27256,-0.37189 0.69412,-1.44354 0.42157,-1.07165 0.45545,-1.51486 0.0178,-0.23215 -0.0497,-0.32222 -0.0682,-0.0795 -0.19485,-0.0892 -0.21999,-0.038 -0.4828,0.3452 -0.27336,0.38245 -0.72087,1.5158 -0.40537,0.99859 -0.44086,1.4629 -0.0169,0.2216 0.0505,0.31167 0.0569,0.0893 0.18349,0.0989 z"
           style="font-style:normal;font-variant:normal;font-weight:normal;font-stretch:normal;font-family:Shrikhand;-inkscape-font-specification:Shrikhand;fill:#000000;fill-opacity:1"
           id="path908" />
        <path
           d="m 99.917404,298.34898 q -1.413637,-0.27074 -1.969387,-0.96984 -0.566145,-0.70109 -0.38897,-1.62619 0.05972,-0.31183 0.216534,-0.6805 0.360733,-0.81451 1.024666,-1.35545 0.661942,-0.53054 1.519603,-0.73265 0.84527,-0.19371 1.75998,-0.0185 1.44482,0.27671 2.03175,0.98178 0.57455,0.71348 0.3914,1.66976 -0.0617,0.32223 -0.22051,0.70129 -0.35277,0.77294 -1.02312,1.29109 -0.68273,0.52656 -1.54879,0.71629 -0.87845,0.19813 -1.793156,0.0229 z m 0.208356,-0.91913 q 0.21828,0.0418 0.5434,-0.30541 0.31272,-0.3388 0.85238,-1.35611 0.53966,-1.01732 0.62327,-1.45388 0.0438,-0.22868 -0.013,-0.32577 -0.0588,-0.0867 -0.18356,-0.11058 -0.2143,-0.0626 -0.51862,0.28859 -0.31472,0.3492 -0.88711,1.4249 -0.51533,0.94654 -0.602921,1.4039 -0.0418,0.21828 0.01503,0.31537 0.04644,0.0951 0.171171,0.11899 z"
           style="font-style:normal;font-variant:normal;font-weight:normal;font-stretch:normal;font-family:Shrikhand;-inkscape-font-specification:Shrikhand;fill:#000000;fill-opacity:1"
           id="path910" />
        <path
           d="m 92.06577,292.0028 q 0.04546,-0.0745 0.05493,-0.1048 0.0221,-0.0707 -0.0057,-0.12375 -0.02778,-0.053 -0.08839,-0.072 -0.121217,-0.0379 -0.2336,0.0379 -0.125641,0.0827 -0.155946,0.0732 -0.05051,-0.0158 -0.05871,-0.096 -0.0082,-0.0802 0.02021,-0.1711 0.07514,-0.27589 0.385773,-0.48927 0.300531,-0.21654 0.72101,-0.28471 0.42048,-0.0682 0.84474,0.0644 0.50507,0.15786 0.818836,0.4666 0.313767,0.30875 0.357314,0.66609 0.383239,-0.26831 0.79046,-0.32953 0.407222,-0.0612 0.801177,0.0619 0.464665,0.14523 0.796107,0.50385 0.32134,0.35546 0.431173,0.85549 0.09658,0.50697 -0.07391,1.05245 -0.287302,0.91923 -0.883323,1.62 -0.60928,0.70771 -1.390269,1.00694 -0.784145,0.30932 -1.582157,0.0599 -0.434361,-0.13576 -0.705832,-0.33149 -0.281572,-0.19889 -0.470964,-0.47984 l -0.69705,1.02401 q -0.05872,0.0814 -0.07766,0.14205 -0.03473,0.11112 0.0038,0.20077 0.02841,0.0865 0.09722,0.18562 0.07576,0.11238 0.107321,0.18878 0.02146,0.0732 -0.04041,0.16478 -0.133223,0.21339 -0.762676,0.20515 -0.629452,-0.008 -1.25574,-0.20398 -0.585882,-0.18311 -0.789162,-0.49059 -0.213382,-0.31063 -0.09341,-0.69448 0.06946,-0.22223 0.206468,-0.41226 z m 0.799773,3.36574 q 0.117422,0.19194 0.309349,0.25192 0.292941,0.0916 0.711539,-0.2544 0.418597,-0.34596 0.782908,-0.90847 0.364311,-0.56252 0.508911,-1.06065 0.173644,-0.55557 -0.190007,-0.66923 -0.131318,-0.041 -0.253803,0.0316 -0.125641,0.0827 -0.282225,0.29987 z"
           style="font-style:normal;font-variant:normal;font-weight:normal;font-stretch:normal;font-family:Shrikhand;-inkscape-font-specification:Shrikhand;fill:#000000;fill-opacity:1"
           id="path912" />
        <path
           d="m 71.111103,287.64599 q -0.494852,-0.3632 -0.58745,-0.71997 -0.10113,-0.36304 0.136825,-0.68725 0.137764,-0.18771 0.328989,-0.32304 l 4.533126,-3.36815 q 0.10074,-0.0836 0.157098,-0.16039 0.08141,-0.11091 0.08884,-0.21048 0.0012,-0.091 -0.03178,-0.20711 -0.01589,-0.10356 -0.01018,-0.165 -5.47e-4,-0.0529 0.06035,-0.10012 0.124066,-0.0796 0.289617,-0.0369 0.16555,0.0427 0.43004,0.23686 l 1.945279,1.42773 q 0.22183,0.16281 0.274117,0.30621 0.04603,0.15193 -0.07577,0.24633 -0.109272,0.0773 -0.310672,0.0477 -0.178075,-0.0257 -0.332276,0.006 -0.154201,0.0312 -0.364213,0.19216 l -4.421584,3.30561 q -0.08195,0.058 -0.119526,0.10919 -0.06888,0.0938 -0.06152,0.19115 -0.0012,0.091 0.03178,0.20711 0.03522,0.13088 0.04031,0.21338 -0.0034,0.0762 -0.09166,0.14277 -0.195217,0.15866 -0.78799,-0.0532 -0.592774,-0.21189 -1.121753,-0.60013 z"
           style="font-style:normal;font-variant:normal;font-weight:normal;font-stretch:normal;font-family:Shrikhand;-inkscape-font-specification:Shrikhand;fill:#000000;fill-opacity:1"
           id="path914" />
        <path
           d="m 68.521004,282.5998 q -1.081356,-0.94991 -1.206073,-1.83425 -0.132667,-0.89131 0.488968,-1.59896 0.20954,-0.23854 0.531581,-0.47685 0.723815,-0.51929 1.570323,-0.64906 0.839524,-0.12181 1.68129,0.13868 0.82683,0.26146 1.52653,0.87611 1.105209,0.97087 1.253779,1.87616 0.133635,0.90625 -0.508954,1.63776 -0.216525,0.24648 -0.545551,0.49275 -0.695876,0.48748 -1.536366,0.59436 -0.855427,0.10785 -1.698159,-0.16758 -0.857668,-0.27447 -1.557368,-0.88912 z m 0.645488,-0.6867 q 0.166974,0.14668 0.623219,0.0122 0.441309,-0.13355 1.422151,-0.73696 0.980841,-0.60341 1.274197,-0.93735 0.153663,-0.17493 0.153882,-0.28743 -0.0068,-0.10455 -0.102179,-0.18837 -0.153005,-0.16258 -0.593347,-0.0141 -0.448294,0.1415 -1.486946,0.77865 -0.923997,0.55473 -1.231323,0.90458 -0.146678,0.16698 -0.146897,0.27948 -0.0082,0.10552 0.08724,0.18933 z"
           style="font-style:normal;font-variant:normal;font-weight:normal;font-stretch:normal;font-family:Shrikhand;-inkscape-font-specification:Shrikhand;fill:#000000;fill-opacity:1"
           id="path916" />
        <path
           d="m 63.397106,277.49096 q -0.821021,-0.89845 -0.977692,-1.74451 -0.164484,-0.83892 0.515211,-1.46004 0.257815,-0.23559 0.671616,-0.44169 l 1.370848,-0.66491 q 0.03839,-0.0207 0.08526,-0.0636 0.125001,-0.11423 0.03219,-0.21579 -0.08567,-0.0938 -0.220912,-0.0849 -0.150192,0.008 -0.17161,-0.0152 -0.0357,-0.0391 -0.0024,-0.11248 0.02613,-0.0812 0.09644,-0.14548 0.2038,-0.20057 0.579617,-0.22859 0.368678,-0.0358 0.76632,0.1169 0.397642,0.15275 0.704632,0.48869 0.371244,0.40626 0.48696,0.83097 0.115715,0.42471 -0.0734,0.79824 0.495432,-0.0226 0.944396,0.15489 0.441151,0.18467 0.776698,0.55186 0.378384,0.41407 0.479147,0.83811 0.09295,0.43118 -0.02854,0.80026 -0.136447,0.36841 -0.4177,0.62543 -0.125001,0.11423 -0.263608,0.19788 -0.653297,0.36761 -1.305121,0.20342 -0.658964,-0.172 -1.187273,-0.75014 -0.592562,-0.64844 -0.96058,-1.45907 l -0.694113,0.27588 q -0.42094,0.19829 -0.600629,0.36249 -0.180363,0.17916 -0.167024,0.38202 0.01334,0.20286 0.234657,0.44505 0.08217,-0.1611 0.214979,-0.28247 0.289066,-0.26416 0.699906,-0.23817 0.410841,0.026 0.782085,0.43225 0.349826,0.38282 0.385663,0.75149 0.02088,0.36801 -0.229118,0.59647 -0.39063,0.35696 -1.048246,0.15505 -0.657617,-0.2019 -1.478638,-1.10035 z m 2.767015,-1.72571 q 0.1999,0.21876 0.500285,0.20232 0.285432,-0.0171 0.480747,-0.1956 0.125001,-0.11423 0.153152,-0.24031 0.02101,-0.13389 -0.07894,-0.24327 -0.09281,-0.10156 -0.278027,-0.14736 -0.200167,-0.0465 -0.414206,0.0488 l -0.610868,0.25716 q 0.09793,0.15423 0.247856,0.31829 z"
           style="font-style:normal;font-variant:normal;font-weight:normal;font-stretch:normal;font-family:Shrikhand;-inkscape-font-specification:Shrikhand;fill:#000000;fill-opacity:1"
           id="path918" />
        <path
           d="m 60.892605,267.74985 q 0.08086,-0.0328 0.1065,-0.0516 0.05983,-0.0437 0.06905,-0.10284 0.0092,-0.0592 -0.02823,-0.11044 -0.0749,-0.10256 -0.210297,-0.10852 -0.15019,-0.008 -0.168914,-0.0339 -0.03121,-0.0427 0.0099,-0.11207 0.04111,-0.0693 0.118028,-0.1255 0.224528,-0.17707 0.601155,-0.16379 0.370385,0.005 0.748921,0.20008 0.378536,0.19534 0.640674,0.55432 0.312068,0.42735 0.380606,0.86218 0.06854,0.43482 -0.109041,0.74796 0.467663,0.0123 0.831411,0.20537 0.363747,0.19304 0.607161,0.52637 0.287103,0.39316 0.340177,0.8786 0.04683,0.47688 -0.16235,0.94415 -0.22397,0.46496 -0.685508,0.80199 -0.777779,0.56797 -1.673747,0.77668 -0.910756,0.2064 -1.716525,-0.0177 -0.814316,-0.21785 -1.307385,-0.89306 -0.268379,-0.36752 -0.37015,-0.68635 -0.108013,-0.32737 -0.09311,-0.66587 l -1.169472,0.40843 q -0.09565,0.0305 -0.14693,0.068 -0.09402,0.0687 -0.116398,0.16363 -0.02862,0.0864 -0.03228,0.20704 -0.006,0.1354 -0.02604,0.21558 -0.02632,0.0716 -0.130511,0.10841 -0.234029,0.0923 -0.735087,-0.28881 -0.501058,-0.38107 -0.888023,-0.91099 -0.362,-0.49573 -0.342483,-0.8638 0.01328,-0.37663 0.338063,-0.6138 0.188034,-0.13731 0.411211,-0.20855 z m -1.359401,3.18118 q -0.0198,0.22413 0.09879,0.38653 0.181,0.24786 0.72328,0.2188 0.54228,-0.0291 1.169752,-0.26449 0.627471,-0.23543 1.040033,-0.5498 0.470086,-0.34328 0.245396,-0.65097 -0.08114,-0.11111 -0.22278,-0.12562 -0.150189,-0.008 -0.405249,0.0731 z"
           style="font-style:normal;font-variant:normal;font-weight:normal;font-stretch:normal;font-family:Shrikhand;-inkscape-font-specification:Shrikhand;fill:#000000;fill-opacity:1"
           id="path920" />
        <path
           d="m 55.34649,266.49998 q -0.317132,-0.52556 -0.265412,-0.89051 0.05172,-0.36495 0.396054,-0.57273 0.208413,-0.12576 0.436977,-0.17715 l 3.212403,-0.80123 q 0.12514,-0.0384 0.206693,-0.0876 0.117799,-0.0711 0.162951,-0.16013 0.03609,-0.0836 0.05031,-0.20341 0.02516,-0.1017 0.05406,-0.15623 0.01984,-0.049 0.09421,-0.0692 0.145138,-0.0258 0.281523,0.0773 0.136386,0.10311 0.305888,0.38402 l 1.24666,2.066 q 0.142163,0.2356 0.135285,0.38808 -0.01594,0.15794 -0.16467,0.19825 -0.130608,0.0294 -0.305113,-0.0755 -0.154509,-0.0922 -0.308863,-0.12265 -0.154353,-0.0305 -0.410102,0.0373 l -3.094449,0.79186 q -0.09796,0.022 -0.152325,0.0548 -0.09968,0.0601 -0.126705,0.13826 -0.03609,0.0836 -0.04484,0.21247 -0.01781,0.13436 -0.05031,0.20341 -0.0325,0.0691 -0.139515,0.0965 -0.24122,0.0714 -0.706929,-0.35215 -0.474771,-0.41808 -0.813775,-0.97989 z m -2.368916,0.60127 q -0.213245,-0.3534 -0.119811,-0.73116 0.08437,-0.37229 0.419645,-0.5746 0.235597,-0.14216 0.538682,-0.152 0.297617,-0.0189 0.579295,0.12016 0.267148,0.13546 0.431183,0.4073 0.207776,0.34433 0.123404,0.71662 -0.0989,0.3687 -0.437768,0.58554 -0.226536,0.1367 -0.515091,0.15012 -0.297617,0.0189 -0.573827,-0.11109 -0.27621,-0.12999 -0.445712,-0.41089 z"
           style="font-style:normal;font-variant:normal;font-weight:normal;font-stretch:normal;font-family:Shrikhand;-inkscape-font-specification:Shrikhand;fill:#000000;fill-opacity:1"
           id="path922" />
        <path
           d="m 55.336636,257.44598 q 0.04733,6.7e-4 0.123583,-0.0361 0.06672,-0.0322 0.09106,-0.0792 0.01974,-0.0565 -0.0079,-0.11371 -0.05518,-0.11439 -0.187289,-0.14466 -0.146238,-0.0352 -0.160033,-0.0638 -0.02299,-0.0477 0.02994,-0.10844 0.0434,-0.0562 0.129186,-0.0976 0.271833,-0.14289 0.6307,-0.081 0.349334,0.0665 0.700249,0.35547 0.336783,0.28405 0.585095,0.79878 0.303492,0.62912 0.196864,1.13882 -0.116159,0.51431 -0.597699,0.75835 -0.352688,0.17014 -0.873936,0.21009 l -1.625535,0.1379 q -0.14691,0.0121 -0.223167,0.0489 -0.123917,0.0598 -0.149257,0.17776 -0.03947,0.11304 0.01571,0.22743 0.101164,0.20971 0.393306,0.30378 0.28261,0.0987 0.609959,0.0465 l 2.22965,-0.34708 q 0.123247,-0.0125 0.218568,-0.0584 0.114386,-0.0552 0.167651,-0.13962 0.04373,-0.0798 0.07861,-0.20243 0.025,-0.0943 0.05887,-0.1459 0.03387,-0.0516 0.109787,-0.0647 0.142311,-0.0217 0.26848,0.0937 0.126168,0.11539 0.273315,0.42042 l 1.048427,2.17332 q 0.119557,0.24783 0.09388,0.38947 -0.03061,0.15578 -0.177853,0.19156 -0.132779,0.017 -0.29674,-0.10361 -0.145233,-0.1062 -0.29607,-0.15094 -0.150837,-0.0447 -0.411796,-0.001 l -3.164037,0.48057 q -0.05686,0.004 -0.142646,0.0453 -0.104853,0.0506 -0.139054,0.12583 -0.0388,0.0657 -0.07861,0.20243 -0.03027,0.13211 -0.06907,0.19783 -0.0388,0.0657 -0.147915,0.0831 -0.246829,0.0486 -0.670982,-0.41659 -0.433684,-0.46056 -0.718783,-1.05155 -0.229918,-0.47661 -0.09637,-0.88179 0.124015,-0.40059 0.604883,-0.59731 -0.750927,-0.11952 -1.172159,-0.45683 -0.430763,-0.33271 -0.679075,-0.84745 -0.2805,-0.58146 -0.09795,-1.10429 0.177951,-0.53236 0.740346,-0.80366 0.295496,-0.14255 0.627443,-0.18518 z"
           style="font-style:normal;font-variant:normal;font-weight:normal;font-stretch:normal;font-family:Shrikhand;-inkscape-font-specification:Shrikhand;fill:#000000;fill-opacity:1"
           id="path924" />
        <path
           d="m 47.210388,252.1969 q -0.110498,-0.32013 -0.07403,-0.6686 0.02301,-0.35501 0.1975,-0.62797 0.161033,-0.2795 0.431145,-0.37273 0.590243,-0.20373 0.866488,0.5966 0.07942,0.23009 0.0943,0.37051 0.0014,0.13386 -0.01991,0.33155 0.08039,0.006 0.210442,-0.0391 0.160066,-0.0552 0.362892,-0.18123 0.199372,-0.13599 0.361826,-0.28164 0.237614,-0.31713 0.667791,-0.46561 0.190079,-0.0656 0.477456,-0.10882 0.561651,-0.0595 1.133404,0.20218 0.5683,0.25168 1.039399,0.80562 0.457642,0.54739 0.720075,1.3077 0.200277,0.58024 0.29635,1.11808 0.18185,0.10517 0.371928,0.0396 0.130054,-0.0449 0.178654,-0.19602 0.0386,-0.14767 -0.05809,-0.42779 l -0.517959,-1.50062 q -0.265886,-0.77031 -0.144256,-1.29372 0.111626,-0.51996 0.601828,-0.68916 0.180075,-0.0622 0.390872,-0.0677 0.431597,-0.0146 0.910215,0.30161 0.485169,0.30277 0.961141,1.00057 0.475973,0.6978 0.855809,1.79826 0.3384,0.9804 0.403138,1.71939 0.06474,0.73898 -0.121435,1.17271 -0.172716,0.44028 -0.532864,0.56459 -0.08003,0.0276 -0.253912,0.0429 -0.321197,0.0101 -0.611769,-0.24787 -0.297124,-0.24452 -0.605769,-0.9441 -0.147221,0.31952 -0.467353,0.43002 -0.110046,0.038 -0.240455,0.0494 -0.575463,0.0195 -1.094905,-0.6745 -0.15119,0.89189 -0.941516,1.16468 -0.220091,0.076 -0.480909,0.0988 -0.561651,0.0595 -1.1234,-0.20563 -0.571753,-0.26169 -1.042852,-0.81562 -0.471099,-0.55394 -0.733532,-1.31425 -0.410914,-1.1905 -0.335594,-1.97782 -0.178299,0.22948 -0.407329,0.4093 -0.242487,0.17326 -0.462578,0.24923 -0.380156,0.13122 -0.733141,-0.0156 -0.356438,-0.15687 -0.529091,-0.65708 z m 4.30078,0.94506 q -0.56546,0.016 -0.835571,0.10928 -0.340141,0.1174 -0.240002,0.40752 0.08633,0.2501 0.402038,0.35385 0.302254,0.0972 0.998122,0.0697 0.575464,-0.0195 0.845575,-0.11272 0.330137,-0.11396 0.233451,-0.39407 -0.08633,-0.2501 -0.402038,-0.35386 -0.315711,-0.10375 -1.001575,-0.0797 z m 4.198608,0.7788 q 0.09669,0.28012 0.146094,0.52057 0.191498,0.0683 0.441602,-0.0181 0.24665,-0.0963 0.291087,-0.32439 0.04098,-0.23807 -0.100591,-0.64824 -0.172653,-0.50021 -0.42976,-0.75854 -0.26056,-0.26834 -0.540675,-0.17165 -0.12005,0.0414 -0.159001,0.15565 -0.03895,0.1142 0.01975,0.28427 z"
           style="font-style:normal;font-variant:normal;font-weight:normal;font-stretch:normal;font-family:Shrikhand;-inkscape-font-specification:Shrikhand;fill:#000000;fill-opacity:1"
           id="path926" />
        <path
           d="m 46.20825,230.69165 q 0.02587,-1.43909 0.620034,-2.10585 0.594352,-0.67734 1.536114,-0.66041 0.317447,0.006 0.707444,0.0974 0.864076,0.21664 1.510243,0.77868 0.635585,0.56185 0.980901,1.37252 0.334926,0.79989 0.318185,1.73107 -0.02644,1.47084 -0.621174,2.16935 -0.605125,0.68773 -1.578631,0.67023 -0.328029,-0.006 -0.728608,-0.0978 -0.821749,-0.21589 -1.446563,-0.78813 -0.635204,-0.58301 -0.969749,-1.40407 -0.344936,-0.83183 -0.328196,-1.76301 z m 0.941191,0.0487 q -0.004,0.22221 0.39354,0.4834 0.387144,0.25041 1.481542,0.60881 1.094398,0.35839 1.538824,0.36638 0.232795,0.004 0.31878,-0.0684 0.0754,-0.0727 0.07769,-0.19972 0.02516,-0.22183 -0.372757,-0.46186 -0.397725,-0.2506 -1.555232,-0.6313 -1.020517,-0.34648 -1.486107,-0.35485 -0.222214,-0.004 -0.308198,0.0685 -0.08579,0.062 -0.08808,0.18895 z"
           style="font-style:normal;font-variant:normal;font-weight:normal;font-stretch:normal;font-family:Shrikhand;-inkscape-font-specification:Shrikhand;fill:#000000;fill-opacity:1"
           id="path928" />
        <path
           d="m 51.242645,221.52388 q 0.03915,0.0266 0.12307,0.0378 0.07343,0.01 0.119599,-0.016 0.04757,-0.0363 0.056,-0.0993 0.01684,-0.12588 -0.07682,-0.22384 -0.102754,-0.10985 -0.09854,-0.14131 0.007,-0.0525 0.08466,-0.0741 0.06715,-0.023 0.161558,-0.0104 0.305607,0.0302 0.571247,0.27932 0.25515,0.24769 0.389221,0.68206 0.124984,0.42248 0.04918,0.98893 -0.09265,0.69232 -0.462085,1.05931 -0.379929,0.36559 -0.916313,0.30449 -0.388122,-0.0519 -0.845385,-0.30533 l -1.433326,-0.77907 q -0.129348,-0.0707 -0.213267,-0.0819 -0.136367,-0.0182 -0.222429,0.0663 -0.09515,0.0727 -0.111993,0.19856 -0.02667,0.19931 0.134071,0.43437 0.151655,0.22317 0.543913,0.40379 l -0.02098,-0.003 2.040993,0.94581 q 0.121667,0.0483 0.216075,0.061 0.136367,0.0182 0.227304,-0.023 0.08045,-0.0426 0.166509,-0.12721 0.08326,-0.0636 0.139915,-0.0881 0.04617,-0.0259 0.116792,0.005 0.129348,0.0707 0.171231,0.23647 0.04188,0.16577 -0.0016,0.49095 l -0.32005,2.39167 q -0.0365,0.27274 -0.13726,0.38738 -0.111253,0.11325 -0.252495,0.0516 -0.120263,-0.0588 -0.190808,-0.24977 -0.06286,-0.16857 -0.164213,-0.28891 -0.10135,-0.12034 -0.343279,-0.22746 l -5.02104,-2.29491 q -0.0902,-0.0441 -0.153136,-0.0525 -0.115387,-0.0154 -0.197238,0.0377 -0.08045,0.0426 -0.16651,0.1272 -0.09795,0.0937 -0.167913,0.1377 -0.06855,0.0335 -0.16924,-0.012 -0.232843,-0.0952 -0.331157,-0.71701 -0.09831,-0.62178 -0.01128,-1.27215 0.08142,-0.60841 0.350093,-0.86075 0.27008,-0.26283 0.668692,-0.20949 0.230775,0.0309 0.441235,0.13379 l 1.770402,0.81351 q -0.480234,-0.4807 -0.629669,-0.95983 -0.148032,-0.48963 -0.07644,-1.02461 0.08563,-0.63988 0.525688,-0.97606 0.441464,-0.34667 1.060362,-0.26385 0.325184,0.0435 0.62584,0.19052 z"
           style="font-style:normal;font-variant:normal;font-weight:normal;font-stretch:normal;font-family:Shrikhand;-inkscape-font-specification:Shrikhand;fill:#000000;fill-opacity:1"
           id="path930" />
        <path
           d="m 54.122145,210.58515 q 0.03469,0.0322 0.115961,0.0559 0.07111,0.0208 0.120649,0.002 0.05251,-0.0288 0.07032,-0.0897 0.03563,-0.1219 -0.0422,-0.23285 -0.08502,-0.12409 -0.07611,-0.15456 0.01485,-0.0508 0.09486,-0.0605 0.06986,-0.0127 0.161282,0.0141 0.29756,0.0759 0.522612,0.36224 0.214894,0.28333 0.281953,0.73294 0.05987,0.43649 -0.100458,0.98504 -0.195954,0.67045 -0.616495,0.97755 -0.430699,0.30414 -0.951741,0.16288 -0.375858,-0.10986 -0.789698,-0.42928 l -1.299501,-0.98625 q -0.117213,-0.0894 -0.198479,-0.11314 -0.132058,-0.0386 -0.229888,0.032 -0.105018,0.0575 -0.140646,0.17941 -0.05047,0.17269 0.04846,0.40008 0.09893,0.22738 0.382433,0.46461 l 1.655041,1.09016 q 0.0347,0.0322 0.115962,0.0559 0.07111,0.0208 0.120649,0.002 0.05251,-0.0288 0.07032,-0.0897 0.03563,-0.1219 -0.0422,-0.23286 -0.08502,-0.12408 -0.07611,-0.15456 0.01485,-0.0508 0.09486,-0.0605 0.06986,-0.0127 0.161281,0.0141 0.29756,0.0759 0.522613,0.36224 0.214894,0.28333 0.281952,0.73295 0.05987,0.43649 -0.100457,0.98503 -0.195954,0.67045 -0.616495,0.97756 -0.430699,0.30413 -0.951741,0.16287 -0.375858,-0.10985 -0.789698,-0.42928 l -1.299501,-0.98624 q -0.117213,-0.0894 -0.198479,-0.11314 -0.132058,-0.0386 -0.229888,0.032 -0.105018,0.0575 -0.140646,0.17942 -0.05047,0.17269 0.04846,0.40007 0.08877,0.22442 0.378212,0.44133 l 1.977924,1.30581 q 0.09987,0.0733 0.201448,0.10299 0.1219,0.0356 0.218011,0.009 0.08595,-0.03 0.193941,-0.0977 0.08173,-0.0533 0.141432,-0.0689 0.0597,-0.0156 0.124868,0.0255 0.120182,0.0792 0.136597,0.24942 0.01642,0.17019 -0.07859,0.49525 l -0.676934,2.3161 q -0.07719,0.26411 -0.19112,0.3521 -0.127052,0.0952 -0.260362,0.0231 -0.110023,-0.0763 -0.150975,-0.27567 -0.03673,-0.17613 -0.118783,-0.31037 -0.08205,-0.13425 -0.305067,-0.27661 l -2.67151,-1.76213 q -0.04485,-0.0352 -0.136278,-0.0619 -0.111742,-0.0327 -0.187537,3.1e-4 -0.07283,0.0228 -0.19394,0.0977 -0.110957,0.0778 -0.183783,0.10066 -0.07283,0.0228 -0.165502,-0.0374 -0.215827,-0.12924 -0.219285,-0.75873 -0.01362,-0.63247 0.170463,-1.26229 0.145481,-0.49775 0.502887,-0.70202 0.360376,-0.21443 0.834847,-0.0647 -0.457294,-0.58572 -0.547171,-1.10816 -0.08691,-0.5326 0.07045,-1.07099 0.172203,-0.58919 0.62447,-0.85394 0.445077,-0.27788 1.005502,-0.15819 -0.563098,-0.6387 -0.681733,-1.21365 -0.128793,-0.57792 0.04341,-1.1671 0.181109,-0.61966 0.66682,-0.88566 0.488679,-0.27616 1.088019,-0.10099 0.314908,0.092 0.589967,0.28269 z"
           style="font-style:normal;font-variant:normal;font-weight:normal;font-stretch:normal;font-family:Shrikhand;-inkscape-font-specification:Shrikhand;fill:#000000;fill-opacity:1"
           id="path932" />
        <path
           d="m 53.172706,202.72512 q 0.193353,-0.42363 0.65421,-0.51576 0.455623,-0.10614 1.042922,0.16191 0.510277,0.23291 1.014082,0.68389 1.021634,0.89674 1.71073,2.16522 0.69349,1.25884 0.863123,2.56942 0.174027,1.30096 -0.287384,2.31188 -0.228508,0.50065 -0.568796,0.78741 -0.335894,0.27713 -0.708223,0.32823 -0.376723,0.0607 -0.70407,-0.0887 -0.144418,-0.0659 -0.295748,-0.19316 -0.23003,-0.20969 -0.282166,-0.47779 -0.05213,-0.2681 0.0753,-0.54731 0.202142,-0.44288 0.628043,-0.58586 0.439923,-0.14822 1.00461,0.0164 0.252357,-0.62937 -0.01099,-1.37778 -0.310764,0.45147 -0.661321,0.58231 -0.355789,0.11681 -0.915243,-0.0338 l -2.534599,-0.69151 q -0.196113,-0.0546 -0.289874,-0.0276 -0.099,0.013 -0.138544,0.0996 -0.03076,0.0674 -0.0073,0.19443 0.02784,0.11741 0.01027,0.15592 -0.03515,0.077 -0.198829,0.002 -0.13479,-0.0615 -0.266863,-0.17997 -0.469689,-0.42378 -0.62985,-1.06693 -0.169789,-0.64754 0.115846,-1.27335 0.281241,-0.61618 0.778931,-0.73803 0.502085,-0.13148 1.302235,0.12903 l 2.249959,0.67793 q 0.25388,0.081 0.319796,-0.0634 0.0791,-0.1733 -0.123527,-0.54499 -0.212254,-0.37608 -0.688854,-0.86119 -0.391784,0.17019 -0.799069,0.17043 -0.407285,2.4e-4 -0.7924,-0.17553 -0.298463,-0.13623 -0.504004,-0.32311 -0.332382,-0.29131 -0.415079,-0.6199 -0.08793,-0.3426 0.05269,-0.65069 z"
           style="font-style:normal;font-variant:normal;font-weight:normal;font-stretch:normal;font-family:Shrikhand;-inkscape-font-specification:Shrikhand;fill:#000000;fill-opacity:1"
           id="path934" />
        <path
           d="m 54.047295,196.57923 q 0.560456,-0.984 1.141541,-1.29855 0.577126,-0.32898 1.009349,-0.0828 0.349456,0.19904 0.374964,0.60332 0.02155,0.38984 -0.245584,0.85885 -0.246182,0.43222 -0.593881,0.55085 -0.347698,0.11863 -0.66037,-0.0595 -0.193121,-0.11 -0.336541,-0.35002 -0.157137,0.27589 -0.123952,0.53838 0.02399,0.25726 0.28824,0.54174 0.170889,0.17041 0.345617,0.26993 0.22071,0.12571 0.39136,0.12547 0.166692,-0.0147 0.250499,-0.16181 l 0.309036,-0.54258 q 0.272372,-0.4782 0.566651,-0.31059 0.03679,0.0209 0.09988,0.0813 0.170889,0.17041 0.172527,0.40276 0.0069,0.22315 -0.186926,0.56341 l -0.157137,0.27588 2.461023,2.60751 q 0.09464,0.0905 0.177407,0.13759 0.119551,0.0681 0.21931,0.064 0.09056,-0.009 0.202078,-0.0554 0.101039,-0.0277 0.162734,-0.0291 0.0525,-0.007 0.106396,0.0484 0.09336,0.11407 0.06997,0.28344 -0.02339,0.16937 -0.185766,0.45446 l -1.194243,2.09674 q -0.136186,0.2391 -0.272611,0.30755 -0.145621,0.0632 -0.253416,-0.0469 -0.0894,-0.0996 -0.08312,-0.30312 0.005,-0.17985 -0.04378,-0.32943 -0.04878,-0.14957 -0.232824,-0.33966 l -1.945676,-2.05821 q -0.111754,-0.12455 -0.258893,-0.20835 -0.183925,-0.10476 -0.332225,-0.0796 -0.152258,0.0107 -0.370049,0.0937 -0.140383,0.054 -0.226988,0.0778 -0.09056,0.009 -0.173329,-0.0378 -0.179966,-0.0903 -0.180205,-0.26098 0.005,-0.17984 0.219753,-0.55689 l 0.130948,-0.2299 q -0.266571,-0.0666 -0.496477,-0.19753 -0.229906,-0.13094 -0.431063,-0.35513 -0.369487,-0.44186 -0.366604,-1.19536 0.0081,-0.76269 0.652383,-1.89382 z"
           style="font-style:normal;font-variant:normal;font-weight:normal;font-stretch:normal;font-family:Shrikhand;-inkscape-font-specification:Shrikhand;fill:#000000;fill-opacity:1"
           id="path936" />
        <path
           d="m 58.595717,193.77754 q 0.824578,-1.17972 1.689707,-1.40141 0.871192,-0.23037 1.643215,0.30924 0.260232,0.1819 0.532681,0.47563 0.596103,0.66198 0.818636,1.48896 0.213859,0.82092 0.048,1.68632 -0.168475,0.85066 -0.702026,1.61401 -0.842767,1.20574 -1.726085,1.45346 -0.88593,0.23298 -1.683976,-0.32483 -0.268906,-0.18795 -0.550029,-0.48774 -0.561406,-0.63774 -0.760528,-1.46127 -0.201733,-0.83826 -0.02113,-1.70627 0.177989,-0.88275 0.71154,-1.6461 z m 0.753833,0.56564 q -0.127324,0.18216 0.05679,0.62074 0.181503,0.42385 0.889623,1.33199 0.70812,0.90814 1.072445,1.16279 0.190837,0.13339 0.302674,0.12117 0.103163,-0.0183 0.175919,-0.12237 0.144674,-0.17004 -0.05157,-0.59127 -0.190177,-0.42991 -0.938218,-1.39178 -0.653462,-0.85702 -1.035136,-1.1238 -0.182163,-0.12732 -0.293999,-0.11511 -0.105774,0.004 -0.178531,0.10764 z"
           style="font-style:normal;font-variant:normal;font-weight:normal;font-stretch:normal;font-family:Shrikhand;-inkscape-font-specification:Shrikhand;fill:#000000;fill-opacity:1"
           id="path938" />
        <path
           d="m 63.329304,187.87125 q 0.951857,-1.07965 1.836411,-1.20277 0.891554,-0.13107 1.598086,0.49184 0.238158,0.20997 0.475893,0.53244 0.517983,0.72474 0.646229,1.57148 0.120307,0.83975 -0.141702,1.68104 -0.262948,0.82636 -0.878856,1.52495 -0.972854,1.10346 -1.878406,1.25041 -0.90649,0.132 -1.636839,-0.5119 -0.246096,-0.21697 -0.49177,-0.54644 -0.486228,-0.69675 -0.591598,-1.53743 -0.106309,-0.85562 0.170637,-1.69786 0.276007,-0.85717 0.891915,-1.55576 z m 0.685536,0.64672 q -0.146978,0.16671 -0.01329,0.6232 0.132752,0.44154 0.734397,1.42347 0.601645,0.98192 0.935064,1.27588 0.174649,0.15398 0.28715,0.1544 0.104563,-0.007 0.18855,-0.10184 0.162855,-0.15271 0.01517,-0.59332 -0.14069,-0.44855 -0.775969,-1.48835 -0.553073,-0.92499 -0.902371,-1.23294 -0.16671,-0.14698 -0.279211,-0.1474 -0.105502,-0.008 -0.18949,0.0869 z"
           style="font-style:normal;font-variant:normal;font-weight:normal;font-stretch:normal;font-family:Shrikhand;-inkscape-font-specification:Shrikhand;fill:#000000;fill-opacity:1"
           id="path940" />
        <path
           d="m 72.778796,184.33229 q 0.04115,0.077 0.06246,0.1005 0.04973,0.0549 0.109526,0.0579 0.05979,0.003 0.106861,-0.0397 0.09413,-0.0853 0.08584,-0.22053 -0.0075,-0.15023 0.01598,-0.17154 0.03922,-0.0355 0.112486,-0.002 0.07326,0.0336 0.137204,0.1042 0.199664,0.20469 0.226014,0.58063 0.03419,0.36883 -0.120321,0.76579 -0.154515,0.39696 -0.483976,0.69535 -0.392215,0.35522 -0.817439,0.46904 -0.425223,0.11382 -0.755281,-0.0299 0.03686,0.46637 -0.116916,0.84838 -0.153775,0.38201 -0.459703,0.65908 -0.360838,0.32681 -0.838012,0.43057 -0.46933,0.0967 -0.95598,-0.0623 -0.48591,-0.17391 -0.86955,-0.5975 -0.646505,-0.71383 -0.948154,-1.58293 -0.300909,-0.88404 -0.16268,-1.70889 0.131124,-0.83269 0.750824,-1.39394 0.337305,-0.30549 0.643679,-0.44018 0.314218,-0.14179 0.652414,-0.16252 l -0.528992,-1.12011 q -0.04041,-0.0919 -0.08303,-0.13898 -0.07815,-0.0863 -0.174946,-0.0986 -0.08895,-0.0194 -0.209283,-0.0104 -0.135278,0.008 -0.217126,-0.003 -0.074,-0.0187 -0.121516,-0.11841 -0.116336,-0.22304 0.210014,-0.76135 0.326349,-0.53831 0.812696,-0.97878 0.45497,-0.41206 0.823064,-0.4313 0.375938,-0.0263 0.645907,0.27173 0.156298,0.17257 0.250581,0.38704 z m -3.306348,-1.0178 q -0.224971,0.004 -0.374013,0.13883 -0.227485,0.20603 -0.141634,0.74226 0.08585,0.53623 0.385869,1.13551 0.300018,0.59928 0.65598,0.97654 0.390744,0.43144 0.673139,0.17568 0.101976,-0.0924 0.10153,-0.23474 -0.0075,-0.15023 -0.115302,-0.39533 z"
           style="font-style:normal;font-variant:normal;font-weight:normal;font-stretch:normal;font-family:Shrikhand;-inkscape-font-specification:Shrikhand;fill:#000000;fill-opacity:1"
           id="path942" />
        <path
           d="m 87.138077,168.4619 q 0.563695,-0.24298 0.918268,-0.14227 0.364291,0.0965 0.523482,0.46584 0.09216,0.21381 0.112104,0.44723 l 0.61064,5.61434 q 0.02111,0.12919 0.05882,0.21666 0.05446,0.12635 0.136568,0.18315 0.07792,0.0471 0.194714,0.0774 0.09736,0.0387 0.147459,0.0747 0.04591,0.0263 0.0558,0.10272 0.0059,0.14729 -0.114783,0.26844 -0.120647,0.12116 -0.421933,0.25102 l -2.215904,0.95515 q -0.252691,0.10892 -0.402832,0.0814 -0.154329,-0.0372 -0.174103,-0.19002 -0.01139,-0.13338 0.116123,-0.29207 0.112269,-0.14059 0.163377,-0.28939 0.05111,-0.1488 0.0186,-0.41137 l -0.613153,-5.48649 q -0.0085,-0.10003 -0.03368,-0.15835 -0.04608,-0.1069 -0.133719,-0.1498 -0.07792,-0.0471 -0.194714,-0.0774 -0.130702,-0.0359 -0.204432,-0.0732 -0.06401,-0.0416 -0.07675,-0.15132 -0.03804,-0.24867 0.444721,-0.65267 0.482759,-0.40401 1.08533,-0.66374 z"
           style="font-style:normal;font-variant:normal;font-weight:normal;font-stretch:normal;font-family:Shrikhand;-inkscape-font-specification:Shrikhand;fill:#000000;fill-opacity:1"
           id="path944" />
        <path
           d="m 92.807779,168.7832 q 1.36703,-0.45044 2.192501,-0.10957 0.835523,0.33756 1.130295,1.23216 0.09936,0.30156 0.141494,0.69996 0.0806,0.88717 -0.236736,1.6826 -0.320653,0.78538 -0.971972,1.37886 -0.64458,0.58011 -1.529129,0.87157 -1.397186,0.46037 -2.252812,0.12944 -0.848886,-0.3443 -1.153595,-1.26906 -0.102673,-0.3116 -0.148117,-0.72006 -0.06736,-0.84696 0.266659,-1.62561 0.340757,-0.792 1.00544,-1.37873 0.671422,-0.6001 1.555972,-0.89156 z m 0.264617,0.90454 q -0.211086,0.0696 -0.326469,0.531 -0.108643,0.44809 -0.08584,1.59946 0.0228,1.15136 0.161904,1.57353 0.07287,0.22114 0.169724,0.27836 0.09355,0.0472 0.214166,0.007 0.21771,-0.0494 0.312989,-0.50428 0.105331,-0.45814 0.08276,-1.67644 -0.0097,-1.07769 -0.155396,-1.51996 -0.06955,-0.21109 -0.166411,-0.26832 -0.08681,-0.0605 -0.207427,-0.0208 z"
           style="font-style:normal;font-variant:normal;font-weight:normal;font-stretch:normal;font-family:Shrikhand;-inkscape-font-specification:Shrikhand;fill:#000000;fill-opacity:1"
           id="path946" />
        <path
           d="m 99.818401,166.9609 q 1.191039,-0.25042 1.999299,0.0447 0.80608,0.28474 0.99553,1.18578 0.0719,0.34178 0.039,0.8029 l -0.12412,1.51853 q -0.002,0.0436 0.0114,0.10574 0.0348,0.16571 0.16948,0.1374 0.12428,-0.0261 0.18536,-0.14712 0.0693,-0.13352 0.10033,-0.14005 0.0518,-0.0109 0.0981,0.0551 0.0567,0.0638 0.0763,0.157 0.0692,0.27746 -0.0977,0.61536 -0.15653,0.33572 -0.49018,0.60054 -0.33365,0.26481 -0.77899,0.35845 -0.53856,0.11323 -0.96313,-0.003 -0.42458,-0.11621 -0.65015,-0.46893 -0.23231,0.43818 -0.613391,0.7346 -0.383257,0.28606 -0.870029,0.3884 -0.548913,0.11541 -0.965311,-0.0133 -0.418576,-0.1391 -0.674682,-0.43132 -0.247926,-0.30476 -0.326319,-0.67761 -0.03484,-0.16571 -0.03643,-0.32759 0.01546,-0.74947 0.488155,-1.22737 0.483055,-0.48008 1.249462,-0.64122 0.859619,-0.18074 1.744775,-0.0857 l 0.11521,-0.738 q 0.0432,-0.46329 -0.007,-0.7015 -0.0626,-0.24639 -0.2441,-0.33801 -0.18148,-0.0916 -0.502541,-0.0241 0.09698,0.15264 0.134001,0.32871 0.08057,0.3832 -0.150627,0.72381 -0.231198,0.34061 -0.769754,0.45384 -0.507486,0.1067 -0.843207,-0.0498 -0.327541,-0.16905 -0.397224,-0.50047 -0.108879,-0.51785 0.399245,-0.98157 0.508124,-0.46372 1.699162,-0.71414 z m 0.07982,3.26007 q -0.289991,0.061 -0.428508,0.32802 -0.130338,0.25451 -0.0759,0.51344 0.03484,0.16571 0.129115,0.25403 0.10463,0.0862 0.249626,0.0557 0.134639,-0.0283 0.268216,-0.16454 0.14176,-0.14876 0.16853,-0.3815 l 0.089,-0.65678 q -0.1826,0.006 -0.400101,0.0517 z"
           style="font-style:normal;font-variant:normal;font-weight:normal;font-stretch:normal;font-family:Shrikhand;-inkscape-font-specification:Shrikhand;fill:#000000;fill-opacity:1"
           id="path948" />
        <path
           d="m 109.48198,169.75984 q -0.0129,0.0863 -0.01,0.11792 0.007,0.0737 0.0534,0.11177 0.0462,0.038 0.10943,0.0319 0.1264,-0.0123 0.20043,-0.12583 0.0835,-0.12508 0.11514,-0.12816 0.0527,-0.005 0.0914,0.0656 0.0388,0.0707 0.048,0.16546 0.0382,0.28339 -0.16487,0.60086 -0.19253,0.31645 -0.55331,0.54293 -0.36077,0.22647 -0.80318,0.26949 -0.52668,0.0512 -0.93589,-0.11103 -0.4092,-0.16225 -0.58842,-0.47445 -0.24856,0.39633 -0.59983,0.61125 -0.35126,0.21492 -0.76208,0.25486 -0.48454,0.0471 -0.92944,-0.15419 -0.43437,-0.20233 -0.7302,-0.62016 -0.28631,-0.42939 -0.34162,-0.99821 -0.0932,-0.95856 0.18301,-1.83607 0.28571,-0.88907 0.88861,-1.46872 0.60188,-0.59018 1.43403,-0.67109 0.45295,-0.044 0.7792,0.0306 0.33679,0.0736 0.62061,0.25865 l 0.24343,-1.21459 q 0.0224,-0.0979 0.0162,-0.16108 -0.0113,-0.11587 -0.0816,-0.18346 -0.0598,-0.0686 -0.16181,-0.13313 -0.11353,-0.074 -0.17234,-0.13211 -0.0483,-0.0591 -0.0269,-0.16751 0.0396,-0.24842 0.62265,-0.48587 0.583,-0.23745 1.23609,-0.30095 0.61095,-0.0594 0.91789,0.14468 0.31747,0.20306 0.35639,0.60334 0.0225,0.23174 -0.0297,0.46012 z m -2.04692,-2.78891 q -0.18288,-0.13108 -0.38302,-0.11162 -0.30547,0.0297 -0.55637,0.51133 -0.2509,0.48162 -0.3675,1.14158 -0.11659,0.65997 -0.0559,1.17509 0.0563,0.57935 0.43554,0.54248 0.13694,-0.0133 0.2215,-0.12787 0.0835,-0.12509 0.14322,-0.38609 z"
           style="font-style:normal;font-variant:normal;font-weight:normal;font-stretch:normal;font-family:Shrikhand;-inkscape-font-specification:Shrikhand;fill:#000000;fill-opacity:1"
           id="path950" />
        <path
           d="m 113.37556,165.61959 q 0.6138,-0.006 0.90184,0.22391 0.28804,0.23 0.29203,0.63214 0.002,0.24341 -0.0695,0.46638 l -0.94229,3.17389 q -0.0305,0.12731 -0.0296,0.22255 10e-4,0.13758 0.0551,0.22172 0.0536,0.0736 0.14962,0.14669 0.0748,0.0733 0.10709,0.12594 0.0322,0.042 0.0117,0.11631 -0.0516,0.1381 -0.20966,0.20317 -0.15811,0.0651 -0.48618,0.0683 l -2.41287,0.0239 q -0.27516,0.003 -0.40299,-0.0807 -0.12793,-0.094 -0.0871,-0.24256 0.0411,-0.12741 0.22004,-0.22444 0.1579,-0.0862 0.26258,-0.20369 0.10467,-0.11746 0.17624,-0.37218 l 0.89042,-3.06754 q 0.0308,-0.0956 0.0302,-0.15906 -10e-4,-0.11641 -0.0547,-0.17938 -0.0537,-0.0736 -0.16021,-0.14659 -0.10667,-0.0836 -0.14963,-0.14669 -0.043,-0.0631 -0.0123,-0.16922 0.0611,-0.24403 0.66253,-0.42991 0.60133,-0.19646 1.25746,-0.20296 z m 0.68589,-2.34582 q 0.41273,-0.004 0.69061,0.26835 0.27777,0.26184 0.28165,0.6534 0.003,0.27516 -0.14282,0.54119 -0.13496,0.26593 -0.39785,0.43788 -0.25241,0.16125 -0.5699,0.1644 -0.40214,0.004 -0.67991,-0.25787 -0.2673,-0.27253 -0.28186,-0.67457 -0.003,-0.26457 0.13244,-0.51992 0.13496,-0.26593 0.38727,-0.43777 0.25231,-0.17184 0.58037,-0.17509 z"
           style="font-style:normal;font-variant:normal;font-weight:normal;font-stretch:normal;font-family:Shrikhand;-inkscape-font-specification:Shrikhand;fill:#000000;fill-opacity:1"
           id="path952" />
        <path
           d="m 121.17745,170.20299 q -0.0246,0.0404 -0.0315,0.12483 -0.006,0.0738 0.0221,0.11863 0.0387,0.0457 0.102,0.0509 0.12658,0.0104 0.21964,-0.0881 0.10448,-0.10821 0.13612,-0.10561 0.0527,0.004 0.0783,0.0808 0.0264,0.0659 0.0186,0.16082 -0.0146,0.30675 -0.24988,0.58472 -0.23439,0.26742 -0.66138,0.42342 -0.41557,0.14633 -0.98514,0.0995 -0.69614,-0.0573 -1.08146,-0.40758 -0.38444,-0.36084 -0.35072,-0.89963 0.0321,-0.39027 0.26191,-0.85983 l 0.70513,-1.47111 q 0.064,-0.13278 0.071,-0.21716 0.0113,-0.13712 -0.0776,-0.21877 -0.0774,-0.0913 -0.20401,-0.10174 -0.23204,-0.0191 -0.46123,0.18504 -0.22831,0.19359 -0.34928,0.5022 l -0.83105,2.0979 q -0.0517,0.11255 -0.0604,0.21803 -0.0104,0.12657 0.0354,0.21529 0.0467,0.0782 0.13465,0.17037 0.0686,0.0694 0.0959,0.1247 0.0273,0.0554 1.3e-4,0.12744 -0.0535,0.13365 -0.2169,0.18391 -0.16343,0.0503 -0.50095,0.0225 l -2.40486,-0.19793 q -0.27424,-0.0226 -0.38332,-0.1165 -0.11876,-0.10535 -0.075,-0.25041 0.0526,-0.1231 0.23973,-0.20327 0.16516,-0.0714 0.28019,-0.1787 0.11502,-0.10735 0.20969,-0.35441 l 1.18962,-2.97101 q 0.0254,-0.051 0.0333,-0.14593 0.01,-0.11602 -0.038,-0.18365 -0.037,-0.0668 -0.13464,-0.17037 -0.0985,-0.0931 -0.13552,-0.15982 -0.037,-0.0668 0.003,-0.16963 0.0833,-0.23738 0.69923,-0.36721 0.61684,-0.14038 1.27079,-0.0866 0.52739,0.0434 0.80896,0.36391 0.28244,0.30996 0.20826,0.82419 0.48367,-0.58672 0.98796,-0.77883 0.50516,-0.20266 1.07473,-0.15579 0.64341,0.053 1.00155,0.47534 0.36869,0.42325 0.31747,1.04556 -0.0269,0.32698 -0.15843,0.63473 z"
           style="font-style:normal;font-variant:normal;font-weight:normal;font-stretch:normal;font-family:Shrikhand;-inkscape-font-specification:Shrikhand;fill:#000000;fill-opacity:1"
           id="path954" />
        <path
           d="m 129.81704,165.85213 q 0.33202,0.0668 0.61407,0.27464 0.29451,0.19958 0.44156,0.48824 0.15951,0.28037 0.10316,0.56051 -0.12312,0.61216 -0.95316,0.44521 -0.23864,-0.048 -0.36726,-0.10625 -0.11616,-0.0665 -0.27585,-0.18503 -0.0457,0.0664 -0.0729,0.20125 -0.0334,0.16601 -0.0274,0.4047 0.0163,0.24079 0.0597,0.45462 0.1532,0.36546 0.0635,0.81161 -0.0397,0.19713 -0.14787,0.46684 -0.23303,0.51448 -0.74816,0.87507 -0.50475,0.36267 -1.22096,0.4885 -0.70374,0.11754 -1.49228,-0.0411 -0.60178,-0.12104 -1.11423,-0.31047 -0.18276,0.10358 -0.22241,0.30071 -0.0271,0.13488 0.0786,0.2533 0.10781,0.10805 0.39833,0.16648 l 1.55632,0.31303 q 0.79892,0.16069 1.18872,0.53056 0.39189,0.3595 0.28963,0.8679 -0.0376,0.18676 -0.13946,0.37137 -0.2059,0.37961 -0.72091,0.63226 -0.50673,0.26512 -1.34947,0.32232 -0.84273,0.0572 -1.98404,-0.17236 -1.0168,-0.20451 -1.68686,-0.5228 -0.67006,-0.31829 -0.94984,-0.69842 -0.29225,-0.37184 -0.21712,-0.74536 0.0167,-0.083 0.0916,-0.24067 0.1539,-0.2821 0.52348,-0.40208 0.36129,-0.13245 1.12085,-0.0444 -0.20101,-0.28872 -0.13424,-0.62073 0.023,-0.11413 0.0791,-0.23238 0.27452,-0.50614 1.13599,-0.60275 -0.69261,-0.58191 -0.52774,-1.40158 0.0459,-0.22826 0.15824,-0.46475 0.23303,-0.51448 0.74607,-0.86469 0.51513,-0.36059 1.23134,-0.48642 0.7162,-0.12583 1.50474,0.0328 1.23468,0.24833 1.87553,0.71188 -0.10764,-0.26994 -0.14676,-0.55849 -0.0267,-0.29683 0.0192,-0.52509 0.0793,-0.39427 0.38466,-0.62432 0.31573,-0.22797 0.83451,-0.12363 z m -2.99232,3.23046 q 0.27244,-0.49576 0.32878,-0.7759 0.071,-0.35277 -0.22993,-0.41329 -0.25939,-0.0522 -0.5087,0.16757 -0.23684,0.21145 -0.56545,0.82546 -0.27452,0.50613 -0.33087,0.78627 -0.0689,0.34239 0.22165,0.40082 0.25939,0.0522 0.50869,-0.16756 0.24931,-0.21974 0.57583,-0.82337 z m -2.79722,3.22652 q -0.29051,-0.0584 -0.52289,-0.13756 -0.15581,0.13059 -0.20798,0.38998 -0.0418,0.26148 0.13239,0.41526 0.18455,0.15586 0.60995,0.24143 0.51877,0.10434 0.87172,0.0134 0.36332,-0.0888 0.42175,-0.37937 0.025,-0.1245 -0.0537,-0.21592 -0.0788,-0.0914 -0.25516,-0.12688 z"
           style="font-style:normal;font-variant:normal;font-weight:normal;font-stretch:normal;font-family:Shrikhand;-inkscape-font-specification:Shrikhand;fill:#000000;fill-opacity:1"
           id="path956" />
        <path
           d="m 148.8747,175.89184 q 1.22624,0.75366 1.4985,1.60423 0.28129,0.85611 -0.21192,1.65857 -0.16624,0.2705 -0.44342,0.55977 -0.62572,0.63406 -1.43816,0.90492 -0.80689,0.26184 -1.68056,0.14724 -0.85911,-0.11807 -1.65256,-0.60574 -1.25329,-0.77028 -1.5526,-1.63747 -0.28476,-0.87067 0.22507,-1.70019 0.17179,-0.27951 0.4545,-0.5778 0.60356,-0.598 1.41393,-0.84528 0.82493,-0.25076 1.70207,-0.1216 0.8917,0.12569 1.68515,0.61335 z m -0.52025,0.78584 q -0.18935,-0.11637 -0.61633,0.0932 -0.41242,0.20616 -1.27727,0.96654 -0.86485,0.76038 -1.0976,1.13907 -0.12192,0.19837 -0.10313,0.30929 0.0243,0.1019 0.13252,0.1684 0.17826,0.13441 0.5872,-0.0863 0.41796,-0.21517 1.3341,-1.01857 0.81705,-0.7028 1.06088,-1.09953 0.11637,-0.18935 0.0976,-0.30027 -0.01,-0.10538 -0.11796,-0.17188 z"
           style="font-style:normal;font-variant:normal;font-weight:normal;font-stretch:normal;font-family:Shrikhand;-inkscape-font-specification:Shrikhand;fill:#000000;fill-opacity:1"
           id="path958" />
        <path
           d="m 154.20881,184.8923 q -0.0428,0.0202 -0.0952,0.0867 -0.0458,0.0582 -0.0471,0.11112 0.007,0.0594 0.057,0.0987 0.0998,0.0786 0.23178,0.0477 0.14685,-0.0326 0.1718,-0.0129 0.0416,0.0327 0.0207,0.11058 -0.0143,0.0695 -0.0732,0.14439 -0.1815,0.24772 -0.5311,0.34968 -0.34305,0.0936 -0.78522,-0.0119 -0.4273,-0.10734 -0.87639,-0.46078 -0.5489,-0.43199 -0.67689,-0.93675 -0.12144,-0.51308 0.20405,-0.94378 0.24218,-0.30771 0.69296,-0.57246 l 1.39993,-0.8376 q 0.12667,-0.0754 0.17903,-0.14192 0.0851,-0.10812 0.0561,-0.22524 -0.0142,-0.11889 -0.11397,-0.19744 -0.15802,-0.12436 -0.44216,-0.10556 -0.26929,0.017 -0.62435,0.26282 l 0.0131,-0.0166 -1.85264,1.27592 q -0.10349,0.0802 -0.1624,0.15501 -0.0851,0.10811 -0.0959,0.20737 -0.004,0.091 0.0248,0.20807 0.0124,0.10403 0.005,0.16525 -0.001,0.0529 -0.0637,0.098 -0.12668,0.0754 -0.2907,0.0271 -0.16402,-0.0483 -0.42183,-0.25118 l -1.89618,-1.49232 q -0.21624,-0.17018 -0.26367,-0.31526 -0.0409,-0.15339 0.084,-0.24364 0.11181,-0.0736 0.31209,-0.0372 0.17712,0.0317 0.33228,0.006 0.15516,-0.026 0.37047,-0.17981 l 4.53021,-3.1551 q 0.0839,-0.0552 0.12312,-0.10512 0.072,-0.0915 0.0679,-0.18897 0.004,-0.0909 -0.0248,-0.20806 -0.0308,-0.13199 -0.0331,-0.21461 0.006,-0.0761 0.0964,-0.13962 0.20044,-0.15201 0.78576,0.0797 0.58531,0.2317 1.10094,0.63751 0.48237,0.37962 0.56292,0.73931 0.0889,0.36623 -0.15985,0.68226 -0.144,0.18297 -0.33967,0.3118 l -1.60106,1.11028 q 0.65816,-0.16888 1.14668,-0.0538 0.49683,0.12166 0.92098,0.45547 0.50731,0.39926 0.57285,0.94915 0.0739,0.55643 -0.31232,1.04711 -0.2029,0.25782 -0.48242,0.44186 z"
           style="font-style:normal;font-variant:normal;font-weight:normal;font-stretch:normal;font-family:Shrikhand;-inkscape-font-specification:Shrikhand;fill:#000000;fill-opacity:1"
           id="path960" />
        <path
           d="m 162.16883,192.92581 q -0.0454,0.0136 -0.10705,0.0715 -0.054,0.0507 -0.0631,0.10285 -0.002,0.0598 0.0416,0.10612 0.087,0.0925 0.22207,0.0818 0.15006,-0.0103 0.1718,0.0128 0.0362,0.0386 0.004,0.11243 -0.0245,0.0666 -0.094,0.13185 -0.21643,0.21787 -0.57733,0.26653 -0.35318,0.0414 -0.77464,-0.12894 -0.40651,-0.16989 -0.79784,-0.58638 -0.4783,-0.50905 -0.52955,-1.02726 -0.0435,-0.52545 0.34257,-0.90276 0.28537,-0.26814 0.77061,-0.46267 l 1.50923,-0.61936 q 0.1365,-0.0557 0.1982,-0.11362 0.10027,-0.0942 0.089,-0.21436 0.004,-0.11967 -0.0832,-0.21223 -0.1232,-0.13112 -0.36934,-0.16124 -0.24613,-0.0301 -0.5944,0.0938 l -1.77918,0.873 q -0.0454,0.0136 -0.10705,0.0715 -0.054,0.0507 -0.0631,0.10285 -0.002,0.0598 0.0416,0.10612 0.087,0.0926 0.22207,0.0818 0.15006,-0.0103 0.1718,0.0128 0.0362,0.0386 0.004,0.11243 -0.0245,0.0666 -0.094,0.13185 -0.21643,0.21787 -0.57733,0.26653 -0.35318,0.0414 -0.77464,-0.12894 -0.40651,-0.16989 -0.79784,-0.58638 -0.4783,-0.50905 -0.52955,-1.02726 -0.0435,-0.52545 0.34257,-0.90276 0.28537,-0.26814 0.77061,-0.46267 l 1.50923,-0.61936 q 0.1365,-0.0556 0.1982,-0.11362 0.10027,-0.0942 0.089,-0.21436 0.004,-0.11968 -0.0832,-0.21223 -0.1232,-0.13112 -0.36934,-0.16124 -0.23842,-0.0374 -0.5722,0.10197 l -2.12884,1.04181 q -0.11383,0.0489 -0.19096,0.12134 -0.0925,0.087 -0.11802,0.1835 -0.0177,0.0893 -0.0142,0.21668 0.004,0.0975 -0.0124,0.15685 -0.0168,0.0594 -0.0853,0.0947 -0.12926,0.0634 -0.28424,-0.009 -0.15498,-0.0722 -0.38688,-0.31902 l -1.65231,-1.75852 q -0.18842,-0.20053 -0.20644,-0.34335 -0.0175,-0.15778 0.11217,-0.2361 0.12155,-0.0561 0.31416,0.01 0.17041,0.0577 0.32772,0.0551 0.15731,-0.003 0.39314,-0.12252 l 2.87399,-1.40794 q 0.0531,-0.0208 0.12247,-0.086 0.0848,-0.0797 0.0949,-0.16176 0.0173,-0.0743 0.0142,-0.21669 -0.0108,-0.1351 0.007,-0.20943 0.0173,-0.0743 0.11616,-0.12367 0.22088,-0.1204 0.76507,0.19603 0.55191,0.30919 1.00122,0.78738 0.35511,0.37793 0.34978,0.78956 0.002,0.41934 -0.36784,0.75223 0.73676,-0.0968 1.23255,0.0908 0.50305,0.19536 0.88714,0.60414 0.42032,0.44734 0.41898,0.9714 0.0136,0.52452 -0.37389,0.94671 0.83609,-0.16114 1.39172,0.0284 0.56335,0.18226 0.98368,0.6296 0.44206,0.47048 0.42483,1.02399 -0.01,0.56123 -0.46505,0.9888 -0.2391,0.22466 -0.54295,0.36494 z"
           style="font-style:normal;font-variant:normal;font-weight:normal;font-stretch:normal;font-family:Shrikhand;-inkscape-font-specification:Shrikhand;fill:#000000;fill-opacity:1"
           id="path962" />
        <path
           d="m 169.42785,196.08115 q 0.26757,0.38112 0.11385,0.82524 -0.13898,0.44671 -0.66735,0.81765 -0.45908,0.32229 -1.10299,0.52866 -1.2904,0.42748 -2.73319,0.38004 -1.4367,-0.0388 -2.65297,-0.55559 -1.21019,-0.50814 -1.84869,-1.41764 -0.31622,-0.45041 -0.39138,-0.88902 -0.0691,-0.42995 0.0752,-0.77695 0.13823,-0.35567 0.43274,-0.56243 0.12992,-0.0912 0.31624,-0.15736 0.29726,-0.0923 0.55489,-0.002 0.25763,0.0907 0.43398,0.34188 0.27973,0.39844 0.18756,0.83815 -0.0948,0.45445 -0.5225,0.8582 0.41517,0.53611 1.19396,0.68764 -0.23218,-0.49649 -0.16765,-0.86506 0.0793,-0.36599 0.49227,-0.77232 l 1.87891,-1.83632 q 0.14633,-0.14153 0.17048,-0.23606 0.0389,-0.092 -0.0158,-0.16992 -0.0426,-0.0606 -0.16401,-0.10468 -0.11536,-0.0354 -0.13969,-0.07 -0.0487,-0.0693 0.0986,-0.17267 0.12126,-0.0851 0.29026,-0.13912 0.60318,-0.19071 1.23896,-0.003 0.64444,0.18119 1.03971,0.74421 0.38918,0.55436 0.24247,1.04529 -0.14064,0.4996 -0.7702,1.05796 l -1.72317,1.59768 q -0.19831,0.17801 -0.10709,0.30793 0.10946,0.15592 0.53258,0.16921 0.43179,0.007 1.09136,-0.15843 0.0514,-0.42404 0.25731,-0.77547 0.20586,-0.35142 0.55234,-0.59466 0.26851,-0.18851 0.53371,-0.27125 0.41944,-0.13929 0.74471,-0.0444 0.34,0.0975 0.53459,0.37469 z"
           style="font-style:normal;font-variant:normal;font-weight:normal;font-stretch:normal;font-family:Shrikhand;-inkscape-font-specification:Shrikhand;fill:#000000;fill-opacity:1"
           id="path964" />
        <path
           d="m 174.28699,199.94138 q 0.56554,0.98108 0.5431,1.64146 -0.008,0.66426 -0.43893,0.91267 -0.34843,0.20085 -0.71011,0.0184 -0.34723,-0.17853 -0.61679,-0.64615 -0.24842,-0.43094 -0.17495,-0.7909 0.0735,-0.35996 0.38521,-0.53966 0.19254,-0.111 0.47214,-0.11337 -0.15856,-0.27507 -0.40181,-0.37916 -0.23407,-0.10939 -0.61313,-0.0252 -0.23343,0.0613 -0.40764,0.16169 -0.22005,0.12685 -0.30613,0.2742 -0.0716,0.15123 0.0129,0.29793 l 0.31184,0.54097 q 0.27485,0.47679 -0.0186,0.64592 -0.0367,0.0212 -0.1206,0.0451 -0.23343,0.0613 -0.43471,-0.0548 -0.196,-0.1069 -0.39156,-0.44615 l -0.15857,-0.27507 -3.494,0.80477 q -0.12589,0.0359 -0.20841,0.0835 -0.11919,0.0687 -0.16612,0.15684 -0.0377,0.0828 -0.0544,0.20236 -0.0272,0.10118 -0.0572,0.15511 -0.0208,0.0487 -0.0956,0.0673 -0.14563,0.0229 -0.27992,-0.083 -0.1343,-0.10582 -0.29815,-0.39006 l -1.20509,-2.09053 q -0.13742,-0.23839 -0.1275,-0.3907 0.0191,-0.1576 0.16861,-0.19492 0.13117,-0.0267 0.30354,0.0816 0.15263,0.0953 0.30635,0.1288 0.15371,0.0336 0.41076,-0.0291 l 2.75953,-0.6379 q 0.16396,-0.0334 0.31066,-0.118 0.18338,-0.10571 0.23667,-0.24638 0.0677,-0.13677 0.10626,-0.36664 0.0244,-0.14843 0.0477,-0.23516 0.0378,-0.0828 0.12027,-0.13041 0.16893,-0.10959 0.31628,-0.0235 0.15263,0.0952 0.36934,0.47118 l 0.13213,0.22922 q 0.19223,-0.19632 0.42145,-0.32846 0.22923,-0.13213 0.52436,-0.19232 0.56804,-0.0953 1.21665,0.28813 0.6539,0.39266 1.30402,1.52044 z"
           style="font-style:normal;font-variant:normal;font-weight:normal;font-stretch:normal;font-family:Shrikhand;-inkscape-font-specification:Shrikhand;fill:#000000;fill-opacity:1"
           id="path966" />
        <path
           d="m 174.40441,205.28437 q 0.60036,1.30814 0.35385,2.16653 -0.24209,0.86801 -1.09815,1.2609 -0.28856,0.13243 -0.67977,0.21881 -0.8726,0.17923 -1.69851,-0.0472 -0.81629,-0.23089 -1.47882,-0.81182 -0.6485,-0.57573 -1.03697,-1.42217 -0.6136,-1.337 -0.38034,-2.22424 0.24729,-0.88204 1.13221,-1.28817 0.29818,-0.13685 0.69901,-0.22765 0.83413,-0.16157 1.64521,0.0834 0.82512,0.25013 1.48245,0.84509 0.67136,0.60017 1.05983,1.44661 z m -0.86931,0.36403 q -0.0927,-0.20199 -0.56416,-0.26509 -0.45742,-0.0579 -1.59903,0.0934 -1.1416,0.15131 -1.54558,0.33671 -0.21162,0.0971 -0.25766,0.19976 -0.0364,0.0982 0.0165,0.21366 0.0735,0.21082 0.53609,0.25469 0.46704,0.0535 1.67519,-0.10507 1.06986,-0.13002 1.49308,-0.32426 0.20199,-0.0927 0.24804,-0.19535 0.0505,-0.093 -0.003,-0.20845 z"
           style="font-style:normal;font-variant:normal;font-weight:normal;font-stretch:normal;font-family:Shrikhand;-inkscape-font-specification:Shrikhand;fill:#000000;fill-opacity:1"
           id="path968" />
        <path
           d="m 177.10179,212.36388 q 0.44795,1.36785 0.10557,2.1927 -0.33908,0.83491 -1.23421,1.12805 -0.30174,0.0988 -0.70022,0.14022 -0.88731,0.079 -1.68217,-0.2398 -0.78479,-0.32209 -1.37708,-0.97449 -0.57893,-0.64563 -0.86878,-1.53071 -0.45783,-1.39803 -0.12533,-2.25305 0.34585,-0.84825 1.27116,-1.15128 0.31178,-0.1021 0.72033,-0.1468 0.84708,-0.0658 1.62511,0.26962 0.79138,0.3422 1.3769,1.00795 0.59888,0.67251 0.88872,1.55759 z m -0.90501,0.26297 q -0.0692,-0.21121 -0.53041,-0.32743 -0.4479,-0.10946 -1.5993,-0.0888 -1.1514,0.0207 -1.57382,0.15903 -0.22127,0.0725 -0.27868,0.16922 -0.0474,0.0935 -0.008,0.21415 0.049,0.2178 0.50371,0.31391 0.45795,0.10617 1.67628,0.0858 1.0777,-0.008 1.52024,-0.15263 0.21122,-0.0692 0.26862,-0.16592 0.0607,-0.0867 0.0212,-0.20739 z"
           style="font-style:normal;font-variant:normal;font-weight:normal;font-stretch:normal;font-family:Shrikhand;-inkscape-font-specification:Shrikhand;fill:#000000;fill-opacity:1"
           id="path970" />
        <path
           d="m 175.35267,222.30726 q -0.0872,-0.004 -0.11829,0.003 -0.0726,0.0149 -0.10551,0.0649 -0.0329,0.05 -0.0202,0.11219 0.0256,0.1244 0.14628,0.18602 0.13322,0.0699 0.13961,0.10096 0.0106,0.0518 -0.0555,0.0978 -0.0662,0.046 -0.15947,0.0652 -0.27777,0.0679 -0.61491,-0.10049 -0.33502,-0.15803 -0.59833,-0.49287 -0.26331,-0.33484 -0.35281,-0.77023 -0.10655,-0.51833 0.0116,-0.94238 0.11812,-0.42405 0.40965,-0.63524 -0.42036,-0.20532 -0.67118,-0.53192 -0.25081,-0.3266 -0.33392,-0.7309 -0.098,-0.47686 0.0552,-0.94053 0.15532,-0.45331 0.53958,-0.79161 0.39675,-0.33006 0.95654,-0.44513 0.94335,-0.19392 1.84513,-0.0119 0.91427,0.19022 1.55435,0.72853 0.65045,0.53618 0.81879,1.35514 0.0916,0.44576 0.0519,0.77806 -0.0376,0.34268 -0.19166,0.64446 l 1.2335,0.1138 q 0.0997,0.0119 0.16189,-8.7e-4 0.11403,-0.0234 0.17381,-0.10055 0.0619,-0.0668 0.1153,-0.17497 0.0616,-0.12071 0.11317,-0.18533 0.0537,-0.0542 0.16373,-0.0445 0.25122,0.0132 0.54892,0.56785 0.29769,0.55467 0.42981,1.19739 0.12359,0.60126 -0.0469,0.92804 -0.1684,0.33715 -0.56233,0.41812 -0.22806,0.0469 -0.46068,0.0191 z m 2.55713,-2.33001 q 0.11104,-0.1957 0.0705,-0.39267 -0.0618,-0.30063 -0.56723,-0.49926 -0.50543,-0.19863 -1.17401,-0.24487 -0.66859,-0.0463 -1.17442,0.0685 -0.57016,0.1172 -0.49344,0.49039 0.0277,0.13477 0.15054,0.20676 0.13322,0.0699 0.39906,0.10165 z"
           style="font-style:normal;font-variant:normal;font-weight:normal;font-stretch:normal;font-family:Shrikhand;-inkscape-font-specification:Shrikhand;fill:#000000;fill-opacity:1"
           id="path972" />
      </g>
      <path
         id="path837"
         style="display:inline;opacity:0.994;fill:none;stroke:none;stroke-width:1;stroke-linecap:round;stroke-linejoin:round;stroke-miterlimit:4;stroke-dasharray:none;stroke-opacity:1;marker-start:url(#marker1126)"
         d="M 174.625,232.64433 A 61.421127,61.421127 0 0 1 113.20387,294.06546 61.421127,61.421127 0 0 1 51.782745,232.64433 61.421127,61.421127 0 0 1 113.20387,171.22321 61.421127,61.421127 0 0 1 174.625,232.64433 Z"
         clip-path="url(#clipPath953)">
        <desc
           id="desc1160">Element de l'animation de mon loading spinner pour le P3.</desc>
        <title
           id="title1158">Loading Spinner</title>
      </path>
    </g>
  </g>
</svg>
